<svg xmlns="http://www.w3.org/2000/svg" xmlns:xlink="http://www.w3.org/1999/xlink" xmlns:lucid="lucid" width="2659.93" height="1235.25"><g transform="translate(20 20)" lucid:page-tab-id="-inFS8WUQJ0e"><path d="M517.53 74.33c0-2.76 2.24-5 5-5h910c2.76 0 5 2.24 5 5v430c0 2.76-2.24 5-5 5h-910c-2.76 0-5-2.24-5-5z" stroke="#f0424d" stroke-width="4" fill="#fff"/><path d="M1401.54 984.1v3.73h3.73v-3.72zm7.5-11.27h-3.77v3.78h3.78zm-7.5 3.78v3.73h3.73v-3.72zm7.5 3.73h-3.77v3.78h3.78zm20.8-3.54l-9.8-9.8c-1.1-1.07-2.48-1.67-3.97-1.67h-23.93c-3.1 0-5.63 2.52-5.63 5.64v48.72c0 3.1 2.53 5.63 5.64 5.63h33.74c3.1 0 5.62-2.52 5.62-5.64v-38.9c0-1.5-.58-2.93-1.66-4zm-13.32-5.35l8.9 8.88h-8.9zm9.36 48.24h-33.74v-48.73h9.36v1.86h3.73v-1.86h5.67v12.18c0 1.56 1.26 2.82 2.8 2.82h12.18zm-16.6-23.23c-.14-.66-.72-1.14-1.4-1.14h-2.6v-3.72h-3.74v3.73l-2.3 11.4c-.76 3.78 2.12 7.38 6.03 7.38 3.87 0 6.75-3.53 6.03-7.37zm-4 14.58c-2.08 0-3.78-1.44-3.78-3.18 0-1.74 1.7-3.12 3.77-3.12 2.12 0 3.83 1.38 3.83 3.12 0 1.74-1.7 3.18-3.83 3.18zm3.77-23.22h-3.78v3.78h3.78z" stroke="#000" stroke-opacity="0" stroke-width=".29"/><path d="M1381.54 964.1v3.73h3.73v-3.72zm7.5-11.27h-3.77v3.78h3.78zm-7.5 3.78v3.73h3.73v-3.72zm7.5 3.73h-3.77v3.78h3.78zm20.8-3.54l-9.8-9.8c-1.1-1.07-2.48-1.67-3.97-1.67h-23.93c-3.1 0-5.63 2.52-5.63 5.64v48.72c0 3.1 2.53 5.63 5.64 5.63h33.74c3.1 0 5.62-2.52 5.62-5.64v-38.9c0-1.5-.58-2.93-1.66-4zm-13.32-5.35l8.9 8.88h-8.9zm9.36 48.24h-33.74v-48.73h9.36v1.86h3.73v-1.86h5.67v12.18c0 1.56 1.26 2.82 2.8 2.82h12.18zm-16.6-23.23c-.14-.66-.72-1.14-1.4-1.14h-2.6v-3.72h-3.74v3.73l-2.3 11.4c-.76 3.78 2.12 7.38 6.03 7.38 3.87 0 6.75-3.53 6.03-7.37zm-4 14.58c-2.08 0-3.78-1.44-3.78-3.18 0-1.74 1.7-3.12 3.77-3.12 2.12 0 3.83 1.38 3.83 3.12 0 1.74-1.7 3.18-3.83 3.18zm3.77-23.22h-3.78v3.78h3.78z" stroke="#000" stroke-opacity="0" stroke-width=".29"/><path d="M1278.14 934.84l56.6 8.75v5.16c0 7.66-25.35 13.86-56.6 13.86-31.26 0-56.62-6.2-56.62-13.86v-5.6z" fill="#8c3123"/><path d="M1278.16 972.12c23.63 0 43.88-3.6 52.3-8.63l2.82-4.86 1.13-4.47v5.53l-18.55 82.28c0 5.14-16.88 9.22-37.7 9.22-20.8 0-37.67-4.08-37.67-9.22l-18.56-82.28v-5.43l4.27 9.4c8.54 4.96 28.57 8.45 51.96 8.45z" fill="#8c3123"/><path d="M1278.15 929.33c31.25 0 56.6 6.22 56.6 13.84s-25.35 13.78-56.6 13.78-56.62-6.1-56.62-13.78 25.37-13.84 56.62-13.84z" fill="#e05243"/><path d="M1278.14 966.52c29.14 0 53.1-5.3 56.26-12.26l-18.57 82.27c0 5.13-16.87 9.24-37.7 9.24-20.8 0-37.68-4.1-37.68-9.24l-18.57-82.27c3.15 6.95 27.12 12.26 56.26 12.26z" fill="#e05243"/><path d="M1264.82 974.4h24.52v25.35h-24.52V974.4zM1257.4 1008.72c6.68 0 12.1 5.6 12.1 12.5s-5.42 12.5-12.1 12.5c-6.67 0-12.08-5.6-12.08-12.5s5.4-12.5 12.1-12.5zM1308.23 1033.14H1284l12.12-23.3 12.1 23.3z" fill="#fff"/><path d="M1256.08 914.84l56.62 8.75v5.16c0 7.66-25.36 13.86-56.62 13.86-31.25 0-56.6-6.2-56.6-13.86v-5.6z" fill="#8c3123"/><path d="M1256.1 952.12c23.64 0 43.88-3.6 52.32-8.63l2.8-4.86 1.14-4.47v5.53l-18.56 82.28c0 5.14-16.88 9.22-37.7 9.22-20.8 0-37.67-4.08-37.67-9.22l-18.56-82.28v-5.43l4.27 9.4c8.55 4.96 28.57 8.45 51.97 8.45z" fill="#8c3123"/><path d="M1256.1 909.33c31.25 0 56.6 6.22 56.6 13.84s-25.35 13.78-56.6 13.78c-31.26 0-56.62-6.1-56.62-13.78s25.36-13.84 56.62-13.84z" fill="#e05243"/><path d="M1256.1 946.52c29.13 0 53.1-5.3 56.25-12.26l-18.57 82.27c0 5.13-16.87 9.24-37.7 9.24-20.8 0-37.68-4.1-37.68-9.24l-18.57-82.27c3.15 6.95 27.12 12.26 56.26 12.26z" fill="#e05243"/><path d="M1242.77 954.4h24.5v25.35h-24.5V954.4zM1235.35 988.72c6.68 0 12.1 5.6 12.1 12.5s-5.42 12.5-12.1 12.5c-6.67 0-12.1-5.6-12.1-12.5s5.43-12.5 12.1-12.5zM1286.17 1013.14h-24.2l12.1-23.3 12.1 23.3z" fill="#fff"/><path d="M575.55 479.32c-.74 0-1.34.1-1.93.28-.6.2-1.04.5-1.63.8-.46.35-.76.7-1.05 1.18-.3.46-.6.95-.74 1.47-.3.6-.44 1.08-.44 1.67-.15.6-.15 1.08-.15 1.67 0 .58 0 1.1.16 1.7 0 .55.15 1.1.45 1.63.15.56.45 1 .75 1.5.3.45.74.84 1.18 1.18.45.33.9.6 1.5.78.58.2 1.18.3 1.92.3s1.48-.1 2.07-.3c.6-.17 1.04-.42 1.5-.77.43-.33.88-.72 1.18-1.17.3-.45.6-.97.74-1.5l.44-1.63c.15-.6.15-1.12.15-1.7 0-.6 0-1.1-.15-1.68-.15-.6-.15-1.12-.44-1.67-.15-.52-.45-.98-.74-1.47-.3-.48-.75-.83-1.2-1.18-.44-.35-.88-.6-1.48-.8-.6-.17-1.33-.28-2.07-.28zm53.27 0c-.6 0-1.34.1-1.8.28-.58.17-1.02.42-1.32.8-.45.3-.74.7-.9 1.12-.14.45-.3.9-.3 1.4 0 .55.16 1.03.3 1.45.16.42.45.73.75 1.05.45.27.74.52 1.2.7l1.32.55 1.2.45c.44.18.88.35 1.18.56.3.17.6.42.74.73.3.25.43.6.43 1.02 0 .3-.14.6-.3.9 0 .28-.3.5-.44.67-.3.2-.45.3-.75.4-.3.07-.74.1-1.04.1-.43.04-.73-.03-1.03-.13-.3-.1-.6-.24-.9-.42-.28-.17-.58-.42-.73-.66-.15-.3-.3-.53-.44-.85l-1.93.7c.15.52.3.94.74 1.4.3.4.6.73 1.05 1.04.44.27.9.48 1.48.65.45.14 1.04.24 1.63.24.75 0 1.34-.1 1.93-.28.44-.18.88-.42 1.48-.8.3-.35.74-.77.9-1.26.28-.52.43-1.1.43-1.78 0-.6-.14-1.14-.28-1.56-.3-.45-.6-.84-.9-1.15-.3-.3-.6-.56-1.03-.8l-1.35-.6-1.33-.45c-.45-.14-.75-.3-1.2-.48-.3-.18-.6-.35-.73-.6-.16-.2-.3-.48-.3-.83 0-.48.14-.9.58-1.18.3-.3.9-.45 1.5-.45.28 0 .58.04.88.1.3.08.6.18.74.32.15.1.44.23.6.4.14.18.14.36.3.56l1.92-.62c-.15-.4-.3-.73-.6-1.08-.3-.32-.6-.63-.9-.87-.28-.26-.73-.43-1.17-.57-.6-.14-1.04-.2-1.63-.2zm37.4.25v1.95h3.84v11.73h2.08v-11.73H676v-1.95zm-81.62 0v13.68h2.67v-5.05h3.26c.6 0 1.04-.07 1.5-.17.43-.14.88-.32 1.17-.53.3-.2.6-.45.9-.73.3-.28.44-.55.6-.9l.43-.98v-1.02c0-.55 0-1.04-.15-1.56-.14-.56-.44-.98-.9-1.4-.28-.4-.73-.73-1.32-1-.6-.25-1.34-.4-2.23-.4zm13.2 0v13.68h9.8v-2.5h-7.13v-3.32h3.86v-2.5h-3.86v-2.86h6.68v-2.5zm12.62 0v13.68h2.52v-9.02l.3.52.3.5 5.33 8h2.38v-13.68h-2.52v8.91l-.3-.56-.3-.5-5.34-7.85zm26.1 0v13.68h2.1v-6.13h6.22v6.13h2.08v-13.68h-2.08v5.64h-6.23v-5.63zm13.96 0v13.68h2.08v-13.68zm5.64 0v13.68h2.07v-6.13h4.15v-1.9h-4.16v-3.74h6.52v-1.9zm-80.57 2.3c.44 0 .74.03 1.18.17.3.14.6.3.75.52.3.24.44.5.74.8.15.3.3.6.3.94.14.35.3.66.3 1.05v1.04c0 .55 0 1-.16 1.52-.15.56-.3 1-.6 1.46-.14.5-.44.8-.88 1.12-.45.28-1.04.42-1.63.42-.6 0-1.04-.14-1.5-.42-.43-.28-.73-.6-1.03-1.05-.3-.48-.44-.94-.6-1.46-.14-.57-.14-1.1-.14-1.6v-1.02c.15-.38.15-.7.3-1.04.15-.35.3-.67.44-.94.15-.32.3-.56.6-.8.3-.2.6-.42.9-.53.3-.14.73-.2 1.03-.2zm11.72.2h3.4c.3 0 .6.04.9.14l.45.46c.15.18.3.4.3.6.14.2.14.4.14.62 0 .2 0 .42-.15.63 0 .25-.13.43-.28.6-.15.18-.3.32-.6.42-.14.1-.44.17-.74.17h-3.4z" stroke="#000" stroke-opacity="0" stroke-width="1.07"/><path d="M538.6 481.93l-6.08 2.23.44 2.9 5.8-2.13c-.16-1.05-.16-1.95-.16-3m27-6.72c-.44-.86-1.03-1.73-1.48-2.53l-6.08 2.23c.6.7 1.2 1.53 1.78 2.4z" stroke="#000" stroke-opacity="0" stroke-width="1.07" fill="#db212f"/><path d="M552.1 473.47c1.34.63 2.38 1.32 3.42 2.37l6.08-2.23c-1.78-2.36-4-4.3-6.83-5.63-8.75-4.07-19.14-.28-23.14 8.43-1.34 2.85-1.93 5.57-1.64 8.7l6.08-2.23c.15-1.32.44-2.64 1.04-3.9 2.67-5.67 9.34-8.1 14.98-5.46" stroke="#000" stroke-opacity="0" stroke-width="1.07" fill="#db212f"/><path d="M533.4 486.9l-5.78 2.1c.6 2.13 1.48 4.1 2.67 5.92l6.07-2.23c-1.63-1.68-2.52-3.52-2.96-5.8" stroke="#000" stroke-opacity="0" stroke-width="1.07" fill="#ea2227"/><path d="M558.63 484.6c-.15 1.34-.44 2.66-1.04 3.9-2.68 5.7-9.35 8.13-15 5.48-1.33-.6-2.37-1.4-3.26-2.33l-6.08 2.23c1.78 2.54 3.86 4.3 6.68 5.64 8.75 4.07 19.14.28 23.3-8.43 1.18-2.86 1.77-5.58 1.48-8.7l-6.1 2.2z" stroke="#000" stroke-opacity="0" stroke-width="1.07" fill="#db212f"/><path d="M560.12 477.16l-5.8 2.13c1.05 1.9 1.64 4.13 1.5 6.36l6.08-2.23c-.15-2.16-.75-4.28-1.78-6.27" stroke="#000" stroke-opacity="0" stroke-width="1.07" fill="#ea2227"/><path d="M1740 74.33c0-2.76 2.24-5 5-5h869.93c2.76 0 5 2.24 5 5v430c0 2.76-2.24 5-5 5H1745c-2.76 0-5-2.24-5-5z" stroke="#f0424d" stroke-width="4" fill="#fff"/><path d="M76.22 61.02v7.07h7.02V61zm14.1-21.43h-7.08v7.17h7.1zm-14.1 7.17v7.07h7.02v-7.07zm14.1 7.07h-7.08v7.18h7.1zm39.05-6.73l-18.42-18.57c-2.03-2.06-4.65-3.2-7.43-3.2H58.56c-5.83 0-10.56 4.8-10.56 10.72v92.6c0 5.92 4.73 10.7 10.56 10.7h63.38c5.83 0 10.56-4.78 10.56-10.7v-73.9c0-2.85-1.1-5.58-3.13-7.64zm-25-10.14l16.72 16.88h-16.74zm17.57 91.68H58.56v-92.6h17.58v3.55h7v-3.55H93.8V59.2c0 2.96 2.36 5.36 5.24 5.36h22.9zM90.76 84.5c-.26-1.24-1.36-2.15-2.62-2.15h-4.9v-7.07h-7.02v7.07L71.92 104c-1.44 7.2 3.97 14.04 11.32 14.04 7.26 0 12.67-6.73 11.32-14.03zm-7.52 27.72c-3.9 0-7.1-2.73-7.1-6.04 0-3.3 3.2-5.93 7.1-5.93 3.97 0 7.18 2.62 7.18 5.93 0 3.3-3.2 6.04-7.18 6.04zm7.1-44.13h-7.1v7.18h7.1z" stroke="#000" stroke-opacity="0" stroke-width=".29"/><path d="M231.36 294.84l56.62 8.75v5.16c0 7.66-25.37 13.86-56.62 13.86-31.25 0-56.6-6.2-56.6-13.86v-5.6z" fill="#8c3123"/><path d="M231.4 332.12c23.62 0 43.86-3.6 52.3-8.63l2.8-4.86 1.14-4.47v5.53l-18.56 82.28c0 5.14-16.88 9.22-37.7 9.22-20.8 0-37.67-4.08-37.67-9.22l-18.55-82.28v-5.43l4.27 9.4c8.55 4.96 28.57 8.45 51.97 8.45z" fill="#8c3123"/><path d="M231.38 289.33c31.25 0 56.6 6.22 56.6 13.84s-25.35 13.78-56.6 13.78c-31.26 0-56.62-6.1-56.62-13.78s25.36-13.84 56.62-13.84z" fill="#e05243"/><path d="M231.37 326.52c29.14 0 53.1-5.3 56.26-12.26l-18.57 82.27c0 5.13-16.88 9.24-37.7 9.24-20.8 0-37.68-4.1-37.68-9.24l-18.57-82.27c3.16 6.95 27.13 12.26 56.27 12.26z" fill="#e05243"/><path d="M218.05 334.4h24.5v25.35h-24.5V334.4zM210.63 368.72c6.68 0 12.1 5.6 12.1 12.5s-5.42 12.5-12.1 12.5c-6.67 0-12.1-5.6-12.1-12.5s5.43-12.5 12.1-12.5zM261.45 393.14h-24.2l12.1-23.3 12.1 23.3z" fill="#fff"/><path d="M236.05 61.02v7.07h7.1V61zm14.28-21.43h-7.18v7.17h7.18zm-14.28 7.17v7.07h7.1v-7.07zm14.28 7.07h-7.18v7.18h7.18zm39.5-6.73L271.2 28.54c-2.06-2.06-4.7-3.2-7.53-3.2h-45.5c-5.9 0-10.68 4.8-10.68 10.72v92.6c0 5.92 4.78 10.7 10.68 10.7h64.13c5.9 0 10.7-4.78 10.7-10.7v-73.9c0-2.85-1.1-5.58-3.16-7.64zm-25.3-10.14l16.93 16.88h-16.93zm17.78 91.68H218.2v-92.6h17.8v3.55h7.08v-3.55h10.78V59.2c0 2.96 2.4 5.36 5.3 5.36h23.17zM250.77 84.5c-.26-1.24-1.37-2.15-2.65-2.15h-4.95v-7.07h-7.1v7.07L231.7 104c-1.46 7.2 4 14.04 11.45 14.04 7.35 0 12.83-6.73 11.46-14.03zm-7.6 27.72c-3.94 0-7.2-2.73-7.2-6.04 0-3.3 3.26-5.93 7.2-5.93 4 0 7.26 2.62 7.26 5.93 0 3.3-3.25 6.04-7.27 6.04zm7.17-44.13h-7.18v7.18h7.18zM398.12 61.02v7.07h7.1V61zM412.4 39.6h-7.2v7.17h7.2zm-14.28 7.17v7.07h7.1v-7.07zm14.28 7.07h-7.2v7.18h7.2zm39.5-6.73l-18.64-18.57c-2.05-2.06-4.7-3.2-7.53-3.2h-45.48c-5.9 0-10.7 4.8-10.7 10.72v92.6c0 5.92 4.8 10.7 10.7 10.7h64.12c5.9 0 10.7-4.78 10.7-10.7v-73.9c0-2.85-1.12-5.58-3.17-7.64zm-25.3-10.14l16.92 16.88H426.6zm17.77 91.68h-64.12v-92.6h17.78v3.55h7.1v-3.55h10.77V59.2c0 2.96 2.4 5.36 5.3 5.36h23.17zM412.82 84.5c-.25-1.24-1.36-2.15-2.65-2.15h-4.96v-7.07h-7.08v7.07L393.76 104c-1.46 7.2 4 14.04 11.45 14.04 7.37 0 12.84-6.73 11.47-14.03zm-7.6 27.72c-3.94 0-7.2-2.73-7.2-6.04 0-3.3 3.26-5.93 7.2-5.93 4 0 7.26 2.62 7.26 5.93 0 3.3-3.25 6.04-7.27 6.04zm7.18-44.13h-7.2v7.18h7.2z" stroke="#000" stroke-opacity="0" stroke-width=".29"/><path d="M619.4 283.3c-1-1.03-2.4-1.68-4-1.68-1.4 0-2.8.56-3.8 1.68-1.2 1.1-1.8 2.4-1.8 4 0 1.57.6 2.96 1.8 4.07 1 1.12 2.4 1.68 3.8 1.68 1.6 0 3-.65 4-1.68 1-1.02 1.6-2.4 1.6-4.08 0-1.5-.4-2.9-1.6-4zm-4 78c1.6 0 3-.65 4-1.67s1.6-2.42 1.6-4c0-1.67-.6-3.06-1.6-4.08s-2.4-1.67-4-1.67c-1.4 0-2.8.55-3.8 1.67-1.2 1.1-1.8 2.5-1.8 4.08 0 1.5.6 2.88 1.8 4 1 1.1 2.4 1.67 3.8 1.67zm30.6-17.27c1.6-.38 2.6-1.3 3.4-2.6l.2-.28c.6-1.3.8-2.6.4-4.1-.4-1.38-1.2-2.68-2.6-3.42l-.2-.1c-1.2-.74-2.6-.93-4-.46-1.4.28-2.8 1.3-3.6 2.6-.6 1.4-.8 2.78-.4 4.36.4 1.5 1.2 2.7 2.6 3.44 1.2.83 2.8.93 4.2.56zm-24.8-28.42c-1.4-1.48-3.4-2.4-5.8-2.4-2.2 0-4 .83-5.6 2.4-1.6 1.5-2.4 3.54-2.4 5.86 0 2.32.8 4.27 2.4 5.85 1.4 1.5 3.4 2.43 5.6 2.43 2.2 0 4.4-.93 5.8-2.42 1.6-1.57 2.4-3.52 2.4-5.84 0-2.23-.8-4.18-2.4-5.85zm-3.2-9.65c3.4.56 6 1.95 8.4 4.37.4.46.8.74 1 1.2l5.6-3.34c-.8-2.32-.8-4.55-.2-6.96.8-3.07 2.8-5.76 5.8-7.43v-.1c2.8-1.68 5.8-2.05 9-1.2 3.2.92 5.8 2.87 7.4 5.75 1.6 2.97 2 6.3 1.2 9.28-.8 3.07-2.8 5.76-5.6 7.52l-.8.47c-2.8 1.3-5.6 1.48-8.4.74-2.4-.65-4.2-1.76-5.8-3.62l-5.6 3.25c.6 1.85 1 3.52 1 5.56 0 1.95-.4 3.8-1 5.57l5.6 3.25c1.6-1.76 3.6-2.97 5.8-3.62 3-.83 6.2-.46 9.2 1.2l.2.1c2.8 1.77 4.6 4.18 5.4 7.43.8 3.24.4 6.3-1.2 9.28l-.2.18c-1.6 2.88-4 4.64-7.2 5.57-3 .84-6.2.47-9.2-1.2v-.1c-2.8-1.67-4.6-4.18-5.6-7.43-.6-2.4-.6-4.64.2-6.96l-5.6-3.25c-.2.36-.6.73-1 1.1-2.2 2.33-5.2 3.9-8.4 4.37v6.6c2.4.55 4.4 1.57 6 3.33 2.2 2.23 3.6 5.3 3.6 8.73 0 3.35-1.2 6.23-3.6 8.64-2.2 2.23-5.2 3.62-8.6 3.62-3.2 0-6.2-1.4-8.4-3.63-2.4-2.4-3.6-5.3-3.6-8.64 0-3.43 1.4-6.5 3.6-8.73 1.6-1.76 3.6-2.87 6-3.34v-6.6c-3.2-.46-6.2-2.13-8.4-4.36-3-3.15-4.6-6.77-4.6-11.14 0-4.36 1.8-8.26 4.6-11.14 2.4-2.42 5-3.8 8.4-4.37v-6.6c-2.4-.55-4.4-1.57-6-3.33-2.4-2.42-3.6-5.3-3.6-8.73 0-3.35 1.2-6.23 3.6-8.65 2.2-2.4 5.2-3.62 8.4-3.62 3.4 0 6.4 1.4 8.6 3.62 2.2 2.23 3.6 5.3 3.6 8.64 0 3.42-1.2 6.3-3.6 8.72-1.6 1.67-3.6 2.88-6 3.34v6.6zm31.4-4.36v-.1c-.8-1.3-2-2.23-3.4-2.6-1.4-.38-3-.2-4.2.55-1.4.84-2.2 2.05-2.6 3.53-.4 1.5-.2 2.88.4 4.27l.2.1c.6 1.3 2 2.22 3.2 2.6 1.4.37 3 .18 4.4-.56v-.1c1.4-.75 2.2-2.05 2.6-3.44.4-1.4.2-2.97-.6-4.27m24.8 1.85h6.2v19.4l9-10.12h7.6l-11 11.7 11 14.86h-7.2l-9.4-13.3v13.3h-6.2v-35.85m30 22.65c0 3.35 2.2 8.18 8 8.18 3.4 0 5.6-1.86 6.8-4.28.6-1.2 1-2.4 1-3.8.2-1.3-.2-2.5-.6-3.72-1.2-2.5-3.6-4.73-7.4-4.73-5 0-7.8 4.18-7.8 8.35zm22 13.2H720v-3.82c-1.6 3.07-5.2 4.65-8.8 4.65-8.4 0-13.2-6.6-13.2-14.12 0-8.35 5.8-14.1 13.2-14.1 4.8 0 7.6 2.6 8.8 4.73v-3.9h6.2v26.56m7.2-21.65h-3.2v-4.92h3.2v-1.48c0-7.9 5.8-8.45 10.4-8.45v4.92c-1.6 0-4.2 0-4.2 3.7v1.3h4.2v4.93h-4.2v21.64h-6.2v-21.65m14.6-14.2h6.2v19.4l9-10.12h7.6l-11 11.7 11 14.86h-7.2l-9.4-13.3v13.3H748v-35.85m30 22.65c0 3.35 2.2 8.18 7.8 8.18 3.6 0 5.8-1.86 7-4.28.6-1.2 1-2.4 1-3.8 0-1.2-.2-2.5-.6-3.72-1.2-2.5-3.6-4.73-7.4-4.73-5 0-7.8 4.18-7.8 8.35zm22 13.2h-6.2v-3.82c-1.8 3.07-5.2 4.65-8.8 4.65-8.4 0-13.4-6.6-13.4-14.12 0-8.35 6-14.1 13.4-14.1 4.8 0 7.6 2.6 8.8 4.73v-3.9h6.2v26.56" stroke="#000" stroke-opacity="0" fill="#231f20"/><path d="M315.03 310.24v3.72h3.73v-3.72zm7.5-11.28h-3.77v3.78h3.78zm-7.5 3.78v3.72h3.73v-3.72zm7.5 3.72h-3.77v3.78h3.78zm20.8-3.54l-9.8-9.78c-1.1-1.08-2.5-1.68-3.97-1.68h-23.94c-3.1 0-5.62 2.52-5.62 5.64v48.72c0 3.12 2.52 5.64 5.62 5.64h33.75c3.1 0 5.62-2.52 5.62-5.64v-38.88c0-1.5-.6-2.94-1.67-4.02zM330 297.58l8.92 8.88h-8.9zm9.37 48.24h-33.75V297.1h9.36v1.86h3.74v-1.86h5.67v12.18c0 1.56 1.24 2.82 2.77 2.82h12.2zm-16.6-23.22c-.14-.66-.72-1.14-1.4-1.14h-2.6v-3.72h-3.74v3.72l-2.3 11.4c-.76 3.78 2.12 7.38 6.03 7.38 3.87 0 6.75-3.54 6.03-7.38zm-4 14.58c-2.08 0-3.8-1.44-3.8-3.18 0-1.74 1.72-3.12 3.8-3.12 2.1 0 3.82 1.38 3.82 3.12 0 1.74-1.72 3.18-3.84 3.18zm3.77-23.22h-3.78v3.78h3.78z" stroke="#000" stroke-opacity="0" stroke-width=".29"/><path d="M346 321.46h235.5" stroke="#000" stroke-width="2" fill="none"/><path d="M346.02 322.46H345v-2H346z"/><path d="M596.76 321.46l-14.26 4.64v-9.27z" stroke="#000" stroke-width="2"/><path d="M1247.67 384.43l-29.75 14.3c-.27.2-.46.4-.55.7l-7.37 32.2c0 .3 0 .6.18.9l20.64 25.8c.18.3.46.4.83.4h32.97c.37 0 .65-.1.83-.4l20.64-25.8c.17-.3.17-.6.17-.9l-7.37-32.2c-.1-.3-.28-.5-.55-.7l-29.75-14.3c-.28-.1-.65-.1-.93 0z" stroke="#000" stroke-opacity="0" stroke-width=".42" fill="#0766ae"/><path d="M1283.5 384.53l-11.7 4.3c-.08 0-.18.1-.27.2l-6.26 10.8v.3l2.12 12.3c0 .1.08.2.17.3l9.58 8c.1.1.2.1.28.1h12.43c.2 0 .28 0 .37-.1l9.58-8c.1-.1.1-.2.1-.3l2.2-12.3c0-.1 0-.2-.08-.3l-6.17-10.8c-.1-.1-.18-.2-.28-.2l-11.7-4.3h-.36z" stroke="#000" stroke-opacity="0" stroke-width=".42" fill="#6694c9"/><path d="M1281.48 398.43c.18-.2.46-.4.74-.6.18-.2.46-.3.73-.5.28-.1.56-.2.93-.3.36-.1.64-.1 1-.1.56 0 1.1.1 1.67.3.46.2.83.5 1.2.9.36.4.55.9.73 1.4.2.6.2 1.1.2 1.7v7.2h-2.96v-7.2c0-.5-.2-1-.46-1.5-.37-.3-.83-.5-1.3-.5-.45 0-.82.1-1.2.3-.45.2-.73.4-1.1.8v8.1h-3.04v-11.3h1.94c.28 0 .64.2.74.5zM1237.82 410.83h6.45v12.6h.1c.63-1.1 1.28-2.1 1.92-3.2l6.53-9.4h7.83l-9.4 12.1 9.96 16.4h-7.56l-7-12.3-2.4 3v9.3h-6.44z" stroke="#000" stroke-opacity="0" stroke-width=".42" fill="#fff"/><path d="M1221.33 468.43v6.5l6.08-6.5h4.25l-6.08 6.2 6.72 9.4h-4.34l-4.7-7-1.93 2v5h-3.4v-15.6zM1236.25 472.73v1.6h.1c.36-.7.82-1.1 1.56-1.4.56-.3 1.2-.5 1.85-.5.74 0 1.38.1 2.12.4.46.2.92.5 1.2.9.37.4.55.9.64 1.5.2.6.2 1.2.2 1.9v6.9h-3.04v-6.4c0-.9-.2-1.6-.46-2.1-.28-.4-.83-.6-1.57-.6-.83 0-1.47.2-1.84.7-.38.5-.56 1.3-.56 2.5v5.9h-3.14v-11.3zM1246.66 474.43c.37-.5.74-.9 1.3-1.2.54-.3 1-.5 1.65-.6.65-.1 1.2-.2 1.85-.2.65 0 1.1 0 1.75.1.55.1 1 .2 1.57.5.46.2.83.5 1.2 1 .36.5.46 1 .46 1.6v5.9c0 .5 0 1 .1 1.5 0 .3.08.7.26 1h-3.14c-.1-.2-.1-.3-.1-.5-.08-.2-.08-.4-.08-.6-.55.5-1.1.9-1.75 1.1-.74.2-1.38.3-2.12.3-.45 0-.9-.1-1.46-.2-.47-.1-.83-.3-1.2-.6s-.65-.6-.83-1.1c-.18-.5-.27-.9-.27-1.5-.1-.5.1-1 .28-1.6.3-.4.56-.7.93-.9.37-.3.74-.5 1.2-.6l1.38-.3c.47-.1.93-.1 1.4-.2.45 0 .82-.1 1.2-.2.36 0 .54-.2.82-.4.27-.1.37-.4.27-.7 0-.3 0-.5-.2-.8-.08-.2-.17-.3-.36-.4-.18-.2-.46-.2-.64-.3h-.83c-.46 0-.92.1-1.38.4-.48.3-.66.8-.66 1.3h-3.13c.1-.7.3-1.3.56-1.8zm6.17 4.4c-.18 0-.46.1-.64.1-.2.1-.47.1-.75.1-.18.1-.46.1-.74.1-.17.1-.45.1-.63.2-.28.1-.46.2-.65.3-.18.1-.27.3-.36.5-.1.2-.2.4-.2.7 0 .3.1.5.2.7.1.2.27.3.46.4.18.2.37.2.55.3h.74c.56.1.93 0 1.4-.3.36-.1.54-.4.73-.7.18-.3.27-.5.36-.9v-1.8c-.1.1-.28.2-.47.3zM1265 472.73v2.1h-2.22v5.6c0 .5.1.9.28 1 .1.2.46.3 1 .3h.47c.2 0 .37-.1.46-.1v2.4c-.28.1-.56.1-.84.1h-.92c-.55 0-.92 0-1.38-.1-.46 0-.74-.2-1.1-.4-.37-.2-.65-.4-.83-.8-.2-.4-.28-.8-.28-1.3v-6.7h-1.84v-2.1h1.85v-3.4h3.13v3.4zM1266.56 471.03v-2.6h3.13v2.6zm3.13 1.7v11.3h-3.14v-11.3zM1274.94 484.03l-3.87-11.3h3.23l2.4 7.7h.08l2.4-7.7h3.04l-3.78 11.3zM1286.82 481.33c.46.5 1.1.7 2.03.7.55 0 1.1-.2 1.57-.5.46-.2.73-.5.82-1h2.77c-.45 1.4-1.1 2.3-2.02 2.9-1 .7-2.03.9-3.22.9-.92 0-1.66-.1-2.4-.4-.73-.3-1.3-.7-1.84-1.2-.55-.6-.92-1.2-1.2-1.9-.27-.8-.37-1.6-.37-2.4 0-.9.1-1.6.46-2.4.57-1.5 1.5-2.5 2.96-3.1.83-.4 1.57-.5 2.4-.5.92 0 1.66.2 2.48.6.74.3 1.3.8 1.75 1.5.46.6.82 1.3 1 2.1.2.9.28 1.6.2 2.5h-8.1c0 1 .26 1.8.72 2.2zm3.5-5.9c-.37-.4-.92-.7-1.65-.7-.47 0-.83.1-1.3.3-.27.2-.55.3-.73.6-.2.3-.37.5-.46.8-.1.3-.1.5-.1.8h5.07c-.1-.7-.37-1.3-.83-1.8z" stroke="#000" stroke-opacity="0" stroke-width=".42"/><path d="M801 321.46h138" stroke="#000" stroke-width="2" fill="none"/><path d="M801.03 322.46H800v-2h1.03z"/><path d="M954.26 321.46L940 326.1v-9.27z" stroke="#000" stroke-width="2"/><path d="M90.27 140.36l.03 1.46.15 2.35.24 2.27.3 2.2.42 2.16.5 2.1.58 2.08.66 2.04.75 2.03.86 2.02.95 2.02 1.08 2.02 1.18 2.06 1.33 2.08 1.47 2.13 1.66 2.18 1.88 2.27 2.14 2.36 2.44 2.5 2.8 2.64 3.32 2.86 3.97 3.14 4.9 3.55 6.38 4.22 9.3 5.62 51.83 28.84 6.38 4.22 4.9 3.56 3.96 3.14 3.3 2.85 2.83 2.65 2.44 2.48 2.1 2.37 1.9 2.26 1.65 2.2 1.5 2.13 1.3 2.1 1.2 2.04 1.06 2.04.96 2.03.85 2.02.58 1.54" stroke="#000" stroke-width="2" fill="none"/><path d="M91.27 140.37l-2 .04-.02-1.04h2z"/><path d="M230.83 286.14l-6.96-13.28 9.13-1.56z" stroke="#000" stroke-width="2"/><path d="M250.23 140.36l-.3 15.13-.78 12.48-1.1 10.4-1.38 9.43-1.87 9.76-9.85 43.32-1.4 9.43-1.08 10.42-.63 10.12" stroke="#000" stroke-width="2" fill="none"/><path d="M251.23 140.4l-2-.03.02-1h2z"/><path d="M231.46 286.1l-4.28-14.38 9.27.23z" stroke="#000" stroke-width="2"/><path d="M412.3 140.36l-.03.93-.12 1.85-.2 1.8-.25 1.8-.33 1.73-.4 1.72-.48 1.7-.56 1.7-.63 1.7-.7 1.68-.8 1.7-.9 1.72-1 1.75-1.14 1.78-1.27 1.82-1.44 1.88-1.6 1.94-1.82 2.02-2.08 2.1-2.38 2.25-2.77 2.38-3.22 2.56-3.85 2.78-4.67 3.1-5.84 3.53-7.62 4.2-10.92 5.4-22.08 9.72-44.8 19.18-10.9 5.4-7.64 4.2-5.83 3.5-4.67 3.1-3.85 2.8-3.23 2.57-2.76 2.38-2.37 2.23-2.08 2.12-1.82 2.03-1.6 1.94-1.43 1.87-1.27 1.83-1.13 1.78-1 1.74-.9 1.7-.66 1.4" stroke="#000" stroke-width="2" fill="none"/><path d="M413.3 140.4l-2-.03v-1h2z"/><path d="M232.06 286.17l-1.53-14.92 9.06 1.95z" stroke="#000" stroke-width="2"/><path d="M105.7 387.87c-1.57-.85-2.5-1.8-2.6-2.76-.22-.97.2-2.07 1.24-3.3 2.6-2.98 4.07-6.8 4.07-10.74 0-9.05-7.3-16.35-16.4-16.35h-.1c-9.08 0-16.4 7.36-16.4 16.36 0 4.1 1.37 7.64 4.08 10.74 1.05 1.27 1.46 2.3 1.36 3.26-.2.98-1.15 1.9-2.72 2.76-2.4-1.95-4.5-4.62-5.74-7.3-.73-1.53-1.26-2.88-1.67-4.54-.3-1.7-.52-3.18-.52-4.92 0-3.02.53-5.6 1.68-8.4 1.14-2.6 2.7-4.9 4.7-6.9 1.98-2.07 4.18-3.47 6.8-4.6 2.8-1.2 5.42-1.7 8.45-1.7h.1c3.04 0 5.65.5 8.47 1.7 2.5 1.1 4.9 2.62 6.9 4.6 1.98 2.1 3.45 4.17 4.6 6.9 1.15 2.8 1.67 5.38 1.67 8.4 0 1.65-.2 3.3-.52 4.92-.42 1.66-.95 3-1.68 4.54-1.25 2.68-3.34 5.35-5.74 7.35m-8.05 4.03c-.2-.17-1.04-.8-1.88-1.95-.83-1.1-1.77-2.98-1.77-5.44.1-1.52.3-2.83.94-4.23.52-1.45 1.25-2.55 2.3-3.7l.3-.25c.32-.47.74-.93 1.05-1.44.4-.68.62-1.36.83-2.04.3-1.2.3-2.2 0-3.35-.2-1.03-.63-2-1.25-2.86-.53-.85-1.26-1.48-2.1-2.04-.93-.6-1.87-.93-3.02-1.06-.32-.08-.63-.08-1.05-.08h-.1c-.4 0-.72 0-1.14.08-1.05.13-2 .47-2.93 1.06-.83.56-1.56 1.2-2.2 2.04-.62.9-.93 1.78-1.24 2.85-.22 1.13-.22 2.15.1 3.34.1.68.4 1.36.83 2.04.3.5.73.97 1.04 1.44l.2.25c1.06 1.1 1.9 2.34 2.4 3.7.64 1.4.85 2.7.85 4.24.1 2.47-.84 4.34-1.67 5.45-.84 1.14-1.67 1.78-2 1.95l-1.24-.38c-1.14-.43-2.4-.98-3.54-1.57 1.98-1.06 3.24-3.14 3.24-5.44 0-1.47-.63-2.92-1.78-4.23v-.04l-.3-.4-.95-1.1c-1.15-1.43-1.78-2.88-2.2-4.7-.52-1.9-.52-3.65-.1-5.65.42-1.7 1.04-3.35 2.1-4.75 1.03-1.4 2.3-2.6 3.75-3.48 1.57-1.02 3.03-1.57 4.9-1.83.63-.08 1.26-.13 1.9-.13h.1c.62 0 1.25.04 1.87.12 1.77.26 3.34.8 4.9 1.83 1.57.93 2.72 2 3.76 3.48.94 1.4 1.68 3.05 2.1 4.75.4 2 .4 3.74-.1 5.7-.43 1.77-1.06 3.22-2.2 4.7-.32.38-.63.68-.95 1.06l-.3.4s0 .03-.1.03c-1.15 1.4-1.67 2.8-1.67 4.3 0 2.28 1.14 4.27 3.23 5.38-1.25.68-2.3 1.14-3.65 1.57l-1.25.38m-5.74-16.34c-2.3-.05-4.17-1.96-4.17-4.3 0-2.37 1.88-4.24 4.18-4.28 2.4.04 4.3 1.9 4.3 4.3 0 2.32-1.9 4.23-4.3 4.28" stroke="#000" stroke-opacity="0" stroke-width=".96" fill="#f0424d"/><path d="M132.23 373.43c0 3.02-.3 3.82-.94 4.55-.53.42-1.16.72-2.4.72h-4.4c-1.46 0-2.3-.2-2.92-.8-.94-.94-1.15-2.1-1.15-6.42 0-4.33.2-5.47 1.15-6.4.62-.6 1.46-.82 2.92-.82h4.4c1.24 0 1.87.26 2.3.73.72.67 1.03 1.64 1.03 4.32h-2.7c-.12-1.87-.22-2.17-.33-2.34-.2-.17-.42-.25-1.04-.25h-3.34c-.84 0-1.05.08-1.26.3-.2.25-.3.76-.3 4.45 0 3.7.1 4.2.3 4.46.2.2.42.3 1.26.3h3.34c.62 0 .94-.1 1.15-.26.1-.17.22-.72.22-2.55h2.7m4.7-3.26h6.6c0-2.42-.1-2.98-.42-3.23-.1-.13-.32-.26-1.15-.26h-3.35c-.83 0-1.04.1-1.25.3-.3.26-.42.72-.42 3.2zm0 2.2c0 2.85.22 3.4.43 3.6.2.27.42.3 1.25.3h3.77c.52 0 .73-.12.94-.3.2-.16.2-.46.32-1.77h2.72c-.1 2.25-.32 3.05-1.05 3.78-.43.46-1.05.72-2.4.72h-4.6c-1.47 0-2.3-.2-2.93-.8-.94-.94-1.26-2.1-1.26-6.42 0-4.33.33-5.47 1.27-6.4.62-.6 1.46-.82 2.92-.82h3.86c1.46 0 2.4.26 2.92.8.94.95 1.15 2.05 1.15 6.3v.72c0 .2 0 .3-.3.3h-9m20.27 3.52c-.2.25-.63.34-1.46.34h-2.1c-.83 0-1.56-.22-2.6-.77l-.2-.08v-7.87c1.03-.55 1.76-.8 2.7-.8h2.2c.83 0 1.25.08 1.46.34.42.38.52 1.18.52 4.4 0 3.24-.1 4-.52 4.43zm-.84-11.68h-1.88c-1.25 0-1.88.26-3.65 1.8v-1.76H148v17.66h2.83V377c1.77 1.5 2.4 1.74 3.65 1.74h1.88c1.57 0 2.4-.25 2.93-.9.82-.76 1.14-1.86 1.14-6.36s-.32-5.6-1.15-6.37c-.53-.62-1.37-.88-2.94-.88m17.55.85c-.5-.55-1.24-.85-2.5-.85h-2.3c-1.14 0-1.77.26-3.65 1.8v-5.53c-.83-.52-1.67-.82-2.7-1.03v19.23h2.7v-11.17l.63-.3c.73-.33 1.36-.5 2.1-.5h1.87c.94 0 1.25.08 1.57.38.2.26.3.7.3 1.4v10.2h2.83v-10.4c0-2-.3-2.68-.84-3.23" stroke="#000" stroke-opacity="0" stroke-width=".96" fill="#333c46"/><path d="M1553.36 467.75c-1.56-.85-2.5-1.78-2.6-2.76-.22-1 .2-2.1 1.24-3.32 2.62-2.97 4.08-6.8 4.08-10.74 0-9.04-7.3-16.34-16.4-16.34h-.1c-9.1 0-16.4 7.34-16.4 16.34 0 4.12 1.35 7.64 4.07 10.74 1.04 1.27 1.46 2.3 1.35 3.27-.2.97-1.14 1.9-2.7 2.76-2.4-1.95-4.5-4.62-5.76-7.3-.73-1.52-1.25-2.88-1.67-4.54-.3-1.7-.52-3.18-.52-4.92 0-3 .52-5.6 1.67-8.4 1.15-2.6 2.72-4.9 4.7-6.88 2-2.08 4.18-3.48 6.8-4.63 2.8-1.2 5.42-1.7 8.45-1.7h.1c3.04 0 5.65.5 8.47 1.7 2.5 1.1 4.9 2.63 6.9 4.63 1.98 2.08 3.44 4.16 4.6 6.87 1.14 2.8 1.66 5.4 1.66 8.4 0 1.67-.2 3.32-.52 4.93-.42 1.66-.94 3.02-1.67 4.55-1.25 2.68-3.33 5.35-5.74 7.35m-8.04 4.03c-.2-.17-1.05-.8-1.88-1.95-.84-1.1-1.78-2.97-1.78-5.43.1-1.53.32-2.85.94-4.25.53-1.44 1.26-2.55 2.3-3.7l.3-.25c.33-.46.75-.93 1.06-1.44.42-.68.63-1.36.83-2.04.3-1.2.3-2.2 0-3.35-.2-1.02-.63-2-1.26-2.84-.52-.85-1.25-1.5-2.1-2.04-.93-.6-1.87-.95-3.02-1.07-.3-.1-.62-.1-1.04-.1h-.1c-.42 0-.74 0-1.16.1-1.04.12-1.98.46-2.92 1.06-.84.54-1.57 1.18-2.2 2.03-.62.9-.93 1.78-1.25 2.84-.2 1.15-.2 2.16.1 3.35.1.68.42 1.36.84 2.04.3.5.72.98 1.04 1.44l.2.26c1.05 1.1 1.9 2.33 2.4 3.7.63 1.4.84 2.7.84 4.24.1 2.46-.83 4.33-1.67 5.43-.82 1.15-1.66 1.78-1.97 1.95l-1.26-.38c-1.15-.42-2.4-.98-3.55-1.57 2-1.06 3.24-3.14 3.24-5.43 0-1.5-.63-2.93-1.78-4.25v-.04l-.3-.37-.95-1.1c-1.15-1.45-1.77-2.9-2.2-4.72-.52-1.9-.52-3.64-.1-5.63.42-1.7 1.05-3.36 2.1-4.76 1.04-1.4 2.3-2.58 3.75-3.47 1.57-1.02 3.03-1.57 4.9-1.82.64-.08 1.27-.12 1.9-.12h.1c.62 0 1.25.04 1.88.13 1.77.26 3.34.8 4.9 1.83 1.57.93 2.72 2 3.77 3.48.94 1.4 1.67 3.07 2.1 4.77.4 2 .4 3.73-.12 5.68-.4 1.8-1.03 3.23-2.18 4.72-.3.38-.63.67-.94 1.06l-.3.38s0 .05-.12.05c-1.15 1.4-1.67 2.8-1.67 4.3 0 2.28 1.14 4.28 3.23 5.38-1.25.68-2.3 1.15-3.66 1.57l-1.25.38m-5.75-16.34c-2.3-.04-4.18-1.95-4.18-4.3 0-2.37 1.87-4.23 4.17-4.28 2.4.05 4.3 1.9 4.3 4.3 0 2.33-1.9 4.24-4.3 4.28" stroke="#000" stroke-opacity="0" stroke-width=".96" fill="#f0424d"/><path d="M1579.9 453.32c0 3-.32 3.82-.94 4.54-.53.42-1.15.72-2.4.72h-4.4c-1.46 0-2.3-.2-2.92-.8-.94-.94-1.15-2.1-1.15-6.42 0-4.33.2-5.47 1.14-6.4.63-.6 1.46-.8 2.93-.8h4.38c1.26 0 1.88.24 2.3.7.73.7 1.05 1.67 1.05 4.34h-2.72c-.1-1.87-.2-2.17-.3-2.34-.22-.17-.43-.25-1.06-.25h-3.34c-.84 0-1.04.1-1.25.3-.2.26-.32.77-.32 4.46 0 3.7.12 4.2.33 4.46.2.2.4.3 1.25.3h3.34c.63 0 .94-.1 1.15-.26.1-.17.2-.72.2-2.54h2.73m4.7-3.27h6.58c0-2.42-.1-2.97-.42-3.23-.1-.13-.3-.25-1.15-.25h-3.33c-.84 0-1.05.08-1.25.3-.32.25-.42.72-.42 3.18zm0 2.2c0 2.85.2 3.4.42 3.6.2.27.4.3 1.25.3h3.76c.52 0 .73-.12.94-.3.2-.16.2-.45.3-1.77h2.73c-.1 2.25-.3 3.06-1.04 3.78-.42.47-1.05.72-2.4.72h-4.6c-1.47 0-2.3-.2-2.93-.8-.94-.94-1.25-2.1-1.25-6.42 0-4.33.3-5.47 1.25-6.4.63-.6 1.46-.8 2.93-.8h3.86c1.46 0 2.4.24 2.93.8.94.93 1.15 2.03 1.15 6.28v.72c0 .2 0 .3-.32.3h-8.98m20.26 3.52c-.2.25-.62.34-1.46.34h-2.1c-.82 0-1.55-.2-2.6-.77l-.2-.08v-7.85c1.04-.56 1.77-.8 2.7-.8h2.2c.84 0 1.26.07 1.46.33.42.38.53 1.2.53 4.4 0 3.24-.12 4-.54 4.43zm-.83-11.67h-1.88c-1.26 0-1.88.26-3.66 1.8v-1.75h-2.83v17.66h2.82v-4.92c1.77 1.5 2.4 1.74 3.65 1.74h1.88c1.57 0 2.4-.25 2.92-.9.84-.75 1.15-1.86 1.15-6.36s-.3-5.6-1.15-6.36c-.52-.64-1.35-.9-2.92-.9m17.55.85c-.52-.55-1.25-.84-2.5-.84h-2.3c-1.16 0-1.78.26-3.66 1.8v-5.53c-.84-.5-1.67-.8-2.72-1.02v19.23h2.72v-11.16l.62-.3c.74-.34 1.36-.5 2.1-.5h1.87c.95 0 1.27.07 1.58.37.2.25.3.67.3 1.4v10.18h2.83v-10.4c0-2-.3-2.67-.82-3.23" stroke="#000" stroke-opacity="0" stroke-width=".96" fill="#333c46"/><path d="M1873.64 283.3c-1-1.03-2.4-1.68-4-1.68-1.4 0-2.8.56-3.8 1.68-1.2 1.1-1.8 2.4-1.8 4 0 1.57.6 2.96 1.8 4.07 1 1.12 2.4 1.68 3.8 1.68 1.6 0 3-.65 4-1.68 1-1.02 1.6-2.4 1.6-4.08 0-1.5-.4-2.9-1.6-4zm-4 78c1.6 0 3-.65 4-1.67s1.6-2.42 1.6-4c0-1.67-.6-3.06-1.6-4.08s-2.4-1.67-4-1.67c-1.4 0-2.8.55-3.8 1.67-1.2 1.1-1.8 2.5-1.8 4.08 0 1.5.6 2.88 1.8 4 1 1.1 2.4 1.67 3.8 1.67zm30.6-17.27c1.6-.38 2.6-1.3 3.4-2.6l.2-.28c.6-1.3.8-2.6.4-4.1-.4-1.38-1.2-2.68-2.6-3.42l-.2-.1c-1.2-.74-2.6-.93-4-.46-1.4.28-2.8 1.3-3.6 2.6-.6 1.4-.8 2.78-.4 4.36.4 1.5 1.2 2.7 2.6 3.44 1.2.83 2.8.93 4.2.56zm-24.8-28.42c-1.4-1.48-3.4-2.4-5.8-2.4-2.2 0-4 .83-5.6 2.4-1.6 1.5-2.4 3.54-2.4 5.86 0 2.32.8 4.27 2.4 5.85 1.4 1.5 3.4 2.43 5.6 2.43 2.2 0 4.4-.93 5.8-2.42 1.6-1.57 2.4-3.52 2.4-5.84 0-2.23-.8-4.18-2.4-5.85zm-3.2-9.65c3.4.56 6 1.95 8.4 4.37.4.46.8.74 1 1.2l5.6-3.34c-.8-2.32-.8-4.55-.2-6.96.8-3.07 2.8-5.76 5.8-7.43v-.1c2.8-1.68 5.8-2.05 9-1.2 3.2.92 5.8 2.87 7.4 5.75 1.6 2.97 2 6.3 1.2 9.28-.8 3.07-2.8 5.76-5.6 7.52l-.8.47c-2.8 1.3-5.6 1.48-8.4.74-2.4-.65-4.2-1.76-5.8-3.62l-5.6 3.25c.6 1.85 1 3.52 1 5.56 0 1.95-.4 3.8-1 5.57l5.6 3.25c1.6-1.76 3.6-2.97 5.8-3.62 3-.83 6.2-.46 9.2 1.2l.2.1c2.8 1.77 4.6 4.18 5.4 7.43.8 3.24.4 6.3-1.2 9.28l-.2.18c-1.6 2.88-4 4.64-7.2 5.57-3 .84-6.2.47-9.2-1.2v-.1c-2.8-1.67-4.6-4.18-5.6-7.43-.6-2.4-.6-4.64.2-6.96l-5.6-3.25c-.2.36-.6.73-1 1.1-2.2 2.33-5.2 3.9-8.4 4.37v6.6c2.4.55 4.4 1.57 6 3.33 2.2 2.23 3.6 5.3 3.6 8.73 0 3.35-1.2 6.23-3.6 8.64-2.2 2.23-5.2 3.62-8.6 3.62-3.2 0-6.2-1.4-8.4-3.63-2.4-2.4-3.6-5.3-3.6-8.64 0-3.43 1.4-6.5 3.6-8.73 1.6-1.76 3.6-2.87 6-3.34v-6.6c-3.2-.46-6.2-2.13-8.4-4.36-3-3.15-4.6-6.77-4.6-11.14 0-4.36 1.8-8.26 4.6-11.14 2.4-2.42 5-3.8 8.4-4.37v-6.6c-2.4-.55-4.4-1.57-6-3.33-2.4-2.42-3.6-5.3-3.6-8.73 0-3.35 1.2-6.23 3.6-8.65 2.2-2.4 5.2-3.62 8.4-3.62 3.4 0 6.4 1.4 8.6 3.62 2.2 2.23 3.6 5.3 3.6 8.64 0 3.42-1.2 6.3-3.6 8.72-1.6 1.67-3.6 2.88-6 3.34v6.6zm31.4-4.36v-.1c-.8-1.3-2-2.23-3.4-2.6-1.4-.38-3-.2-4.2.55-1.4.84-2.2 2.05-2.6 3.53-.4 1.5-.2 2.88.4 4.27l.2.1c.6 1.3 2 2.22 3.2 2.6 1.4.37 3 .18 4.4-.56v-.1c1.4-.75 2.2-2.05 2.6-3.44.4-1.4.2-2.97-.6-4.27m24.8 1.85h6.2v19.4l9-10.12h7.6l-11 11.7 11 14.86h-7.2l-9.4-13.3v13.3h-6.2v-35.85m30 22.65c0 3.35 2.2 8.18 8 8.18 3.4 0 5.6-1.86 6.8-4.28.6-1.2 1-2.4 1-3.8.2-1.3-.2-2.5-.6-3.72-1.2-2.5-3.6-4.73-7.4-4.73-5 0-7.8 4.18-7.8 8.35zm22 13.2h-6.2v-3.82c-1.6 3.07-5.2 4.65-8.8 4.65-8.4 0-13.2-6.6-13.2-14.12 0-8.35 5.8-14.1 13.2-14.1 4.8 0 7.6 2.6 8.8 4.73v-3.9h6.2v26.56m7.2-21.65h-3.2v-4.92h3.2v-1.48c0-7.9 5.8-8.45 10.4-8.45v4.92c-1.6 0-4.2 0-4.2 3.7v1.3h4.2v4.93h-4.2v21.64h-6.2v-21.65m14.6-14.2h6.2v19.4l9-10.12h7.6l-11 11.7 11 14.86h-7.2l-9.4-13.3v13.3h-6.2v-35.85m30 22.65c0 3.35 2.2 8.18 7.8 8.18 3.6 0 5.8-1.86 7-4.28.6-1.2 1-2.4 1-3.8 0-1.2-.2-2.5-.6-3.72-1.2-2.5-3.6-4.73-7.4-4.73-5 0-7.8 4.18-7.8 8.35zm22 13.2h-6.2v-3.82c-1.8 3.07-5.2 4.65-8.8 4.65-8.4 0-13.4-6.6-13.4-14.12 0-8.35 6-14.1 13.4-14.1 4.8 0 7.6 2.6 8.8 4.73v-3.9h6.2v26.56" stroke="#000" stroke-opacity="0" fill="#231f20"/><path d="M1670.28 321.46h165.46M1670.3 321.46h-1.02" stroke="#000" stroke-width="2" fill="none"/><path d="M1851 321.46l-14.26 4.64v-9.27z" stroke="#000" stroke-width="2"/><path d="M2488.74 379.43l-29.75 14.3c-.3.2-.47.4-.56.7l-7.37 32.2c0 .3 0 .6.18.9l20.64 25.8c.17.3.45.4.8.4h33c.36 0 .64-.1.82-.4l20.63-25.8c.2-.3.2-.6.2-.9l-7.38-32.2c-.1-.3-.28-.5-.55-.7l-29.76-14.3c-.27-.1-.64-.1-.92 0z" stroke="#000" stroke-opacity="0" stroke-width=".42" fill="#0766ae"/><path d="M2524.57 379.53l-11.7 4.3c-.1 0-.18.1-.27.2l-6.26 10.8v.3l2.1 12.3c0 .1.1.2.2.3l9.58 8c.1.1.18.1.28.1h12.43c.18 0 .28 0 .37-.1l9.58-8c.1-.1.1-.2.1-.3l2.2-12.3c0-.1 0-.2-.1-.3l-6.16-10.8c-.1-.1-.2-.2-.28-.2l-11.7-4.3h-.37z" stroke="#000" stroke-opacity="0" stroke-width=".42" fill="#6694c9"/><path d="M2522.55 393.43c.18-.2.46-.4.74-.6.17-.2.45-.3.72-.5.28-.1.55-.2.92-.3.37-.1.65-.1 1.02-.1.55 0 1.1.1 1.65.3.48.2.84.5 1.2.9.38.4.56.9.75 1.4.18.6.18 1.1.18 1.7v7.2h-2.94v-7.2c0-.5-.2-1-.47-1.5-.37-.3-.83-.5-1.3-.5-.46 0-.82.1-1.2.3-.45.2-.73.4-1.1.8v8.1h-3.04v-11.3h1.93c.27 0 .64.2.73.5zM2478.9 405.83h6.43v12.6h.1c.64-1.1 1.3-2.1 1.93-3.2l6.54-9.4h7.83l-9.4 12.1 9.95 16.4h-7.55l-7-12.3-2.4 3v9.3h-6.44z" stroke="#000" stroke-opacity="0" stroke-width=".42" fill="#fff"/><path d="M2462.4 463.43v6.5l6.08-6.5h4.23l-6.06 6.2 6.72 9.4h-4.33l-4.7-7-1.93 2v5h-3.4v-15.6zM2477.32 467.73v1.6h.1c.36-.7.82-1.1 1.56-1.4.55-.3 1.2-.5 1.84-.5.74 0 1.38.1 2.12.4.46.2.92.5 1.2.9.37.4.55.9.64 1.5.2.6.2 1.2.2 1.9v6.9h-3.05v-6.4c0-.9-.2-1.6-.46-2.1-.28-.4-.83-.6-1.57-.6-.83 0-1.47.2-1.84.7-.37.5-.56 1.3-.56 2.5v5.9h-3.13v-11.3zM2487.73 469.43c.37-.5.74-.9 1.3-1.2.54-.3 1-.5 1.65-.6.64-.1 1.2-.2 1.84-.2.64 0 1.1 0 1.75.1.55.1 1 .2 1.57.5.46.2.82.5 1.2 1 .36.5.45 1 .45 1.6v5.9c0 .5 0 1 .1 1.5 0 .3.08.7.26 1h-3.13c-.1-.2-.1-.3-.1-.5-.08-.2-.08-.4-.08-.6-.56.5-1.1.9-1.75 1.1-.74.2-1.4.3-2.12.3-.46 0-.92-.1-1.48-.2-.46-.1-.83-.3-1.2-.6-.36-.3-.64-.6-.82-1.1-.2-.5-.28-.9-.28-1.5-.1-.5.1-1 .28-1.6.27-.4.55-.7.92-.9.37-.3.73-.5 1.2-.6l1.38-.3c.46-.1.92-.1 1.38-.2.46 0 .83-.1 1.2-.2.36 0 .55-.2.83-.4.26-.1.35-.4.26-.7 0-.3 0-.5-.18-.8-.1-.2-.2-.3-.37-.4-.18-.2-.45-.2-.64-.3h-.82c-.47 0-.93.1-1.4.4-.45.3-.63.8-.63 1.3h-3.12c.1-.7.27-1.3.55-1.8zm6.17 4.4c-.18 0-.46.1-.64.1-.2.1-.46.1-.74.1-.18.1-.46.1-.74.1-.18.1-.46.1-.64.2-.28.1-.46.2-.65.3-.2.1-.28.3-.38.5-.1.2-.18.4-.18.7 0 .3.1.5.18.7.1.2.28.3.46.4.2.2.37.2.56.3h.73c.56.1.93 0 1.4-.3.35-.1.54-.4.72-.7.18-.3.27-.5.36-.9v-1.8c-.1.1-.27.2-.46.3zM2506.06 467.73v2.1h-2.2v5.6c0 .5.08.9.27 1 .1.2.46.3 1 .3h.47c.18 0 .37-.1.46-.1v2.4c-.28.1-.55.1-.83.1h-.92c-.54 0-.9 0-1.37-.1-.46 0-.74-.2-1.1-.4-.38-.2-.65-.4-.84-.8-.2-.4-.28-.8-.28-1.3v-6.7h-1.84v-2.1h1.84v-3.4h3.13v3.4zM2507.63 466.03v-2.6h3.13v2.6zm3.13 1.7v11.3h-3.13v-11.3zM2516 479.03l-3.86-11.3h3.22l2.4 7.7h.1l2.4-7.7h3.03l-3.8 11.3zM2527.9 476.33c.45.5 1.1.7 2.02.7.55 0 1.1-.2 1.56-.5.46-.2.74-.5.83-1h2.78c-.46 1.4-1.1 2.3-2.03 2.9-1 .7-2.03.9-3.22.9-.93 0-1.66-.1-2.4-.4-.74-.3-1.3-.7-1.84-1.2-.56-.6-.93-1.2-1.2-1.9-.3-.8-.38-1.6-.38-2.4 0-.9.1-1.6.46-2.4.56-1.5 1.48-2.5 2.95-3.1.83-.4 1.57-.5 2.4-.5.92 0 1.65.2 2.48.6.75.3 1.3.8 1.76 1.5.46.6.83 1.3 1.02 2.1.18.9.27 1.6.18 2.5h-8.1c0 1 .27 1.8.73 2.2zm3.5-5.9c-.38-.4-.93-.7-1.67-.7-.46 0-.83.1-1.3.3-.26.2-.54.3-.72.6-.18.3-.36.5-.45.8-.1.3-.1.5-.1.8h5.07c-.1-.7-.37-1.3-.83-1.8z" stroke="#000" stroke-opacity="0" stroke-width=".42"/><path d="M2055.24 321.46H2185" stroke="#000" stroke-width="2" fill="none"/><path d="M2055.27 322.46h-1.03v-2h1.03z"/><path d="M2200.26 321.46L2186 326.1v-9.27z" stroke="#000" stroke-width="2"/><path d="M1238.14 894.84l56.6 8.75v5.16c0 7.66-25.35 13.86-56.6 13.86-31.26 0-56.62-6.2-56.62-13.86v-5.6z" fill="#8c3123"/><path d="M1238.16 932.12c23.63 0 43.88-3.6 52.3-8.63l2.82-4.86 1.13-4.47v5.53l-18.55 82.28c0 5.14-16.88 9.22-37.7 9.22-20.8 0-37.67-4.08-37.67-9.22l-18.56-82.28v-5.43l4.27 9.4c8.54 4.96 28.57 8.45 51.96 8.45z" fill="#8c3123"/><path d="M1238.15 889.33c31.25 0 56.6 6.22 56.6 13.84s-25.35 13.78-56.6 13.78-56.62-6.1-56.62-13.78 25.37-13.84 56.62-13.84z" fill="#e05243"/><path d="M1238.14 926.52c29.14 0 53.1-5.3 56.26-12.26l-18.57 82.27c0 5.13-16.87 9.24-37.7 9.24-20.8 0-37.68-4.1-37.68-9.24l-18.57-82.27c3.15 6.95 27.12 12.26 56.26 12.26z" fill="#e05243"/><path d="M1224.82 934.4h24.52v25.35h-24.52V934.4zM1217.4 968.72c6.68 0 12.1 5.6 12.1 12.5s-5.42 12.5-12.1 12.5c-6.67 0-12.08-5.6-12.08-12.5s5.4-12.5 12.1-12.5zM1268.23 993.14H1244l12.12-23.3 12.1 23.3z" fill="#fff"/><path d="M677.53 0h660v84.67h-660z" stroke="#000" stroke-opacity="0" stroke-width="2" fill="#fff" fill-opacity="0"/><use xlink:href="#a" transform="matrix(1,0,0,1,682.5313818707546,5) translate(76.40740740740739 47.35416666666667)"/><use xlink:href="#b" transform="matrix(1,0,0,1,682.5313818707546,5) translate(313.14814814814815 47.35416666666667)"/><path d="M937.52 1057.25h660v138h-660z" stroke="#000" stroke-opacity="0" stroke-width="2" fill="#fff" fill-opacity="0"/><use xlink:href="#c" transform="matrix(1,0,0,1,942.5220271679764,1062.2500820524624) translate(147.66666666666663 46.66666666666667)"/><use xlink:href="#d" transform="matrix(1,0,0,1,942.5220271679764,1062.2500820524624) translate(277.59259259259255 46.66666666666667)"/><use xlink:href="#e" transform="matrix(1,0,0,1,942.5220271679764,1062.2500820524624) translate(119.2962962962963 110.66666666666667)"/><use xlink:href="#f" transform="matrix(1,0,0,1,942.5220271679764,1062.2500820524624) translate(323.44444444444446 110.66666666666667)"/><path d="M1820 0h660v84.67h-660z" stroke="#000" stroke-opacity="0" stroke-width="2" fill="#fff" fill-opacity="0"/><use xlink:href="#g" transform="matrix(1,0,0,1,1825,5.000000000000028) translate(177.14814814814815 47.35416666666667)"/><use xlink:href="#h" transform="matrix(1,0,0,1,1825,5.000000000000028) translate(319.0740740740741 47.35416666666667)"/><path d="M1849.96 669.33h660V754h-660z" stroke="#000" stroke-opacity="0" stroke-width="2" fill="#fff" fill-opacity="0"/><use xlink:href="#i" transform="matrix(1,0,0,1,1854.9648506151134,674.3333333333333) translate(178.7037037037037 47.35416666666667)"/><use xlink:href="#h" transform="matrix(1,0,0,1,1854.9648506151134,674.3333333333333) translate(317.5185185185185 47.35416666666667)"/><path d="M1361.54 944.1v3.73h3.73v-3.72zm7.5-11.27h-3.77v3.78h3.78zm-7.5 3.78v3.73h3.73v-3.72zm7.5 3.73h-3.77v3.78h3.78zm20.8-3.54l-9.8-9.8c-1.1-1.07-2.48-1.67-3.97-1.67h-23.93c-3.1 0-5.63 2.52-5.63 5.64v48.72c0 3.1 2.53 5.63 5.64 5.63h33.74c3.1 0 5.62-2.52 5.62-5.64v-38.9c0-1.5-.58-2.93-1.66-4zm-13.32-5.35l8.9 8.88h-8.9zm9.36 48.24h-33.74v-48.73h9.36v1.86h3.73v-1.86h5.67v12.18c0 1.56 1.26 2.82 2.8 2.82h12.18zm-16.6-23.23c-.14-.66-.72-1.14-1.4-1.14h-2.6v-3.72h-3.74v3.73l-2.3 11.4c-.76 3.78 2.12 7.38 6.03 7.38 3.87 0 6.75-3.53 6.03-7.37zm-4 14.58c-2.08 0-3.78-1.44-3.78-3.18 0-1.74 1.7-3.12 3.77-3.12 2.12 0 3.83 1.38 3.83 3.12 0 1.74-1.7 3.18-3.83 3.18zm3.77-23.22h-3.78v3.78h3.78zM1855.03 548.1v3.73h3.73v-3.72zm7.5-11.27h-3.77v3.78h3.78zm-7.5 3.78v3.73h3.73v-3.72zm7.5 3.73h-3.77v3.78h3.78zm20.8-3.54l-9.8-9.8c-1.1-1.07-2.5-1.67-3.97-1.67h-23.94c-3.1 0-5.62 2.52-5.62 5.64v48.72c0 3.1 2.52 5.63 5.62 5.63h33.75c3.1 0 5.62-2.52 5.62-5.64v-38.9c0-1.5-.6-2.93-1.67-4zm-13.32-5.35l8.92 8.88h-8.9zm9.37 48.24h-33.75v-48.73h9.36v1.86h3.74v-1.86h5.67v12.18c0 1.56 1.24 2.82 2.77 2.82h12.2zm-16.6-23.23c-.14-.66-.72-1.14-1.4-1.14h-2.6v-3.72h-3.74v3.73l-2.3 11.4c-.76 3.78 2.12 7.38 6.03 7.38 3.87 0 6.75-3.53 6.03-7.37zm-4 14.58c-2.08 0-3.8-1.44-3.8-3.18 0-1.74 1.72-3.12 3.8-3.12 2.1 0 3.82 1.38 3.82 3.12 0 1.74-1.72 3.18-3.84 3.18zm3.77-23.22h-3.78v3.78h3.78zM1935.02 548.1v3.73h3.73v-3.72zm7.5-11.27h-3.77v3.78h3.78zm-7.5 3.78v3.73h3.73v-3.72zm7.5 3.73h-3.77v3.78h3.78zm20.8-3.54l-9.8-9.8c-1.1-1.07-2.48-1.67-3.97-1.67h-23.93c-3.1 0-5.63 2.52-5.63 5.64v48.72c0 3.1 2.5 5.63 5.62 5.63h33.74c3.1 0 5.62-2.52 5.62-5.64v-38.9c0-1.5-.58-2.93-1.66-4zm-13.32-5.35l8.9 8.88h-8.9zm9.36 48.24h-33.74v-48.73h9.35v1.86h3.74v-1.86h5.68v12.18c0 1.56 1.26 2.82 2.8 2.82h12.18zm-16.6-23.23c-.14-.66-.72-1.14-1.4-1.14h-2.6v-3.72H1935v3.73l-2.3 11.4c-.76 3.78 2.12 7.38 6.03 7.38 3.87 0 6.75-3.53 6.03-7.37zm-4 14.58c-2.08 0-3.8-1.44-3.8-3.18 0-1.74 1.72-3.12 3.8-3.12 2.1 0 3.82 1.38 3.82 3.12 0 1.74-1.7 3.18-3.83 3.18zm3.77-23.22h-3.78v3.78h3.78zM2015 548.1v3.73h3.74v-3.72zm7.52-11.27h-3.78v3.78h3.78zm-7.5 3.78v3.73h3.72v-3.72zm7.5 3.73h-3.78v3.78h3.78zm20.8-3.54l-9.82-9.8c-1.08-1.07-2.47-1.67-3.96-1.67h-23.93c-3.1 0-5.62 2.52-5.62 5.64v48.72c0 3.1 2.52 5.63 5.63 5.63h33.75c3.1 0 5.62-2.52 5.62-5.64v-38.9c0-1.5-.58-2.93-1.66-4zm-13.33-5.35l8.9 8.88h-8.9zm9.35 48.24h-33.74v-48.73h9.36v1.86h3.74v-1.86h5.67v12.18c0 1.56 1.26 2.82 2.8 2.82h12.18zm-16.6-23.23c-.14-.66-.72-1.14-1.4-1.14h-2.6v-3.72H2015v3.73l-2.3 11.4c-.75 3.78 2.13 7.38 6.04 7.38 3.87 0 6.75-3.53 6.03-7.37zm-4 14.58c-2.08 0-3.8-1.44-3.8-3.18 0-1.74 1.72-3.12 3.8-3.12 2.1 0 3.82 1.38 3.82 3.12 0 1.74-1.7 3.18-3.83 3.18zm3.77-23.22h-3.78v3.78h3.78zM2095 548.1v3.73h3.73v-3.72zm7.5-11.27h-3.77v3.78h3.78zm-7.5 3.78v3.73h3.73v-3.72zm7.5 3.73h-3.77v3.78h3.78zm20.8-3.54l-9.8-9.8c-1.1-1.07-2.48-1.67-3.97-1.67h-23.93c-3.1 0-5.63 2.52-5.63 5.64v48.72c0 3.1 2.52 5.63 5.63 5.63h33.74c3.1 0 5.62-2.52 5.62-5.64v-38.9c0-1.5-.58-2.93-1.66-4zm-13.32-5.35l8.9 8.88h-8.9zm9.36 48.24h-33.74v-48.73h9.36v1.86h3.73v-1.86h5.66v12.18c0 1.56 1.26 2.82 2.8 2.82h12.18zm-16.6-23.23c-.14-.66-.72-1.14-1.4-1.14h-2.6v-3.72H2095v3.73l-2.3 11.4c-.76 3.78 2.12 7.38 6.03 7.38 3.87 0 6.75-3.53 6.03-7.37zm-4 14.58c-2.07 0-3.78-1.44-3.78-3.18 0-1.74 1.7-3.12 3.77-3.12 2.12 0 3.83 1.38 3.83 3.12 0 1.74-1.7 3.18-3.83 3.18zm3.77-23.22h-3.77v3.78h3.78zM2175 548.1v3.73h3.73v-3.72zm7.5-11.27h-3.77v3.78h3.78zm-7.5 3.78v3.73h3.73v-3.72zm7.5 3.73h-3.77v3.78h3.78zm20.8-3.54l-9.82-9.8c-1.08-1.07-2.47-1.67-3.96-1.67h-23.93c-3.12 0-5.64 2.52-5.64 5.64v48.72c0 3.1 2.52 5.63 5.63 5.63h33.73c3.1 0 5.63-2.52 5.63-5.64v-38.9c0-1.5-.6-2.93-1.67-4zm-13.33-5.35l8.9 8.88h-8.9zm9.36 48.24h-33.74v-48.73h9.35v1.86h3.73v-1.86h5.67v12.18c0 1.56 1.26 2.82 2.8 2.82h12.18zm-16.6-23.23c-.13-.66-.72-1.14-1.4-1.14h-2.6v-3.72H2175v3.73l-2.3 11.4c-.77 3.78 2.1 7.38 6.03 7.38 3.87 0 6.74-3.53 6.03-7.37zm-4 14.58c-2.07 0-3.78-1.44-3.78-3.18 0-1.74 1.7-3.12 3.78-3.12 2.1 0 3.82 1.38 3.82 3.12 0 1.74-1.7 3.18-3.82 3.18zm3.78-23.22h-3.77v3.78h3.78zM2254.98 548.1v3.73h3.74v-3.72zm7.52-11.27h-3.78v3.78h3.78zm-7.52 3.78v3.73h3.74v-3.72zm7.52 3.73h-3.78v3.78h3.78zm20.78-3.54l-9.8-9.8c-1.1-1.07-2.48-1.67-3.96-1.67h-23.94c-3.1 0-5.62 2.52-5.62 5.64v48.72c0 3.1 2.52 5.63 5.62 5.63h33.74c3.1 0 5.63-2.52 5.63-5.64v-38.9c0-1.5-.6-2.93-1.67-4zm-13.3-5.35l8.9 8.88h-8.9zm9.34 48.24h-33.74v-48.73h9.36v1.86h3.73v-1.86h5.67v12.18c0 1.56 1.26 2.82 2.8 2.82h12.18zm-16.6-23.23c-.13-.66-.72-1.14-1.4-1.14h-2.6v-3.72h-3.74v3.73l-2.3 11.4c-.76 3.78 2.12 7.38 6.04 7.38 3.87 0 6.75-3.53 6.03-7.37zm-4 14.58c-2.07 0-3.78-1.44-3.78-3.18 0-1.74 1.7-3.12 3.78-3.12 2.1 0 3.82 1.38 3.82 3.12 0 1.74-1.7 3.18-3.82 3.18zm3.78-23.22h-3.78v3.78h3.78zM2334.97 548.1v3.73h3.74v-3.72zm7.52-11.27h-3.8v3.78h3.8zm-7.53 3.78v3.73h3.74v-3.72zm7.52 3.73h-3.8v3.78h3.8zm20.77-3.54l-9.8-9.8c-1.08-1.07-2.48-1.67-3.96-1.67h-23.93c-3.1 0-5.62 2.52-5.62 5.64v48.72c0 3.1 2.52 5.63 5.62 5.63h33.74c3.12 0 5.64-2.52 5.64-5.64v-38.9c0-1.5-.6-2.93-1.67-4zm-13.3-5.35l8.9 8.88h-8.9zm9.34 48.24h-33.73v-48.73h9.36v1.86h3.73v-1.86h5.67v12.18c0 1.56 1.26 2.82 2.8 2.82h12.18zm-16.6-23.23c-.12-.66-.7-1.14-1.38-1.14h-2.6v-3.72h-3.75v3.73l-2.3 11.4c-.76 3.78 2.12 7.38 6.04 7.38 3.88 0 6.76-3.53 6.04-7.37zm-4 14.58c-2.06 0-3.77-1.44-3.77-3.18 0-1.74 1.7-3.12 3.78-3.12 2.12 0 3.83 1.38 3.83 3.12 0 1.74-1.7 3.18-3.82 3.18zm3.8-23.22h-3.8v3.78h3.8zM2414.97 548.1v3.73h3.73v-3.72zm7.5-11.27h-3.77v3.78h3.78zm-7.5 3.78v3.73h3.73v-3.72zm7.5 3.73h-3.77v3.78h3.78zm20.8-3.54l-9.8-9.8c-1.1-1.07-2.5-1.67-3.97-1.67h-23.94c-3.1 0-5.62 2.52-5.62 5.64v48.72c0 3.1 2.52 5.63 5.62 5.63h33.75c3.1 0 5.63-2.52 5.63-5.64v-38.9c0-1.5-.6-2.93-1.66-4zm-13.32-5.35l8.9 8.88h-8.9zm9.36 48.24h-33.74v-48.73h9.36v1.86h3.73v-1.86h5.67v12.18c0 1.56 1.26 2.82 2.8 2.82h12.2zm-16.6-23.23c-.13-.66-.72-1.14-1.4-1.14h-2.6v-3.72h-3.73v3.73l-2.3 11.4c-.76 3.78 2.12 7.38 6.03 7.38 3.87 0 6.75-3.53 6.03-7.37zm-4 14.58c-2.07 0-3.78-1.44-3.78-3.18 0-1.74 1.7-3.12 3.78-3.12 2.1 0 3.82 1.38 3.82 3.12 0 1.74-1.7 3.18-3.82 3.18zm3.78-23.22h-3.78v3.78h3.78zM2494.96 548.1v3.73h3.73v-3.72zm7.5-11.27h-3.77v3.78h3.77zm-7.5 3.78v3.73h3.73v-3.72zm7.5 3.73h-3.77v3.78h3.77zm20.8-3.54l-9.8-9.8c-1.1-1.07-2.5-1.67-3.97-1.67h-23.95c-3.1 0-5.62 2.52-5.62 5.64v48.72c0 3.1 2.52 5.63 5.62 5.63h33.75c3.1 0 5.62-2.52 5.62-5.64v-38.9c0-1.5-.58-2.93-1.66-4zm-13.32-5.35l8.9 8.88h-8.9zm9.36 48.24h-33.75v-48.73h9.36v1.86h3.75v-1.86h5.66v12.18c0 1.56 1.27 2.82 2.8 2.82h12.2zm-16.6-23.23c-.14-.66-.72-1.14-1.4-1.14h-2.6v-3.72h-3.74v3.73l-2.3 11.4c-.76 3.78 2.12 7.38 6.03 7.38 3.86 0 6.74-3.53 6.02-7.37zm-4 14.58c-2.08 0-3.8-1.44-3.8-3.18 0-1.74 1.72-3.12 3.8-3.12 2.1 0 3.82 1.38 3.82 3.12 0 1.74-1.7 3.18-3.83 3.18zm3.77-23.22h-3.78v3.78h3.77z" stroke="#000" stroke-opacity="0" stroke-width=".29"/><path d="M1152.94 1055.67c-1.57-.85-2.5-1.8-2.62-2.76-.2-.97.2-2.07 1.26-3.3 2.6-2.98 4.07-6.8 4.07-10.74 0-9.05-7.3-16.35-16.4-16.35h-.1c-9.1 0-16.4 7.36-16.4 16.36 0 4.1 1.35 7.64 4.07 10.74 1.04 1.27 1.46 2.3 1.36 3.26-.2.98-1.15 1.9-2.72 2.76-2.4-1.95-4.5-4.62-5.74-7.3-.74-1.53-1.26-2.88-1.68-4.54-.3-1.7-.52-3.18-.52-4.92 0-3.02.52-5.6 1.67-8.4 1.14-2.6 2.7-4.9 4.7-6.9 1.98-2.07 4.17-3.47 6.78-4.6 2.83-1.2 5.44-1.7 8.47-1.7h.1c3.03 0 5.64.5 8.46 1.7 2.52 1.1 4.92 2.62 6.9 4.6 2 2.1 3.45 4.17 4.6 6.9 1.15 2.8 1.68 5.38 1.68 8.4 0 1.65-.2 3.3-.53 4.92-.4 1.66-.94 3-1.67 4.54-1.25 2.68-3.34 5.35-5.74 7.35m-8.05 4.03c-.22-.17-1.05-.8-1.9-1.95-.82-1.1-1.76-2.98-1.76-5.44.1-1.52.3-2.83.94-4.23.52-1.45 1.25-2.55 2.3-3.7l.3-.25c.32-.47.74-.93 1.05-1.44.42-.68.63-1.36.84-2.04.3-1.2.3-2.2 0-3.35-.2-1.03-.63-2-1.26-2.86-.5-.85-1.24-1.48-2.07-2.04-.95-.6-1.9-.93-3.03-1.06-.32-.08-.63-.08-1.05-.08h-.1c-.42 0-.73 0-1.15.08-1.05.13-2 .47-2.93 1.06-.83.56-1.56 1.2-2.2 2.04-.62.9-.93 1.78-1.25 2.85-.2 1.13-.2 2.15.1 3.34.1.68.43 1.36.85 2.04.3.5.73.97 1.04 1.44l.22.25c1.04 1.1 1.88 2.34 2.4 3.7.63 1.4.84 2.7.84 4.24.1 2.47-.84 4.34-1.67 5.45-.85 1.14-1.7 1.78-2 1.95l-1.25-.38c-1.15-.43-2.4-.98-3.55-1.57 1.98-1.06 3.23-3.14 3.23-5.44 0-1.47-.62-2.92-1.77-4.23v-.04l-.32-.4-.94-1.1c-1.14-1.43-1.77-2.88-2.2-4.7-.5-1.9-.5-3.65-.1-5.65.42-1.7 1.05-3.35 2.1-4.75 1.04-1.4 2.3-2.6 3.76-3.48 1.56-1.02 3.03-1.57 4.9-1.83.63-.08 1.26-.13 1.9-.13h.1c.62 0 1.24.04 1.87.12 1.78.26 3.34.8 4.9 1.83 1.58.93 2.73 2 3.77 3.48.94 1.4 1.67 3.05 2.1 4.75.4 2 .4 3.74-.1 5.7-.43 1.77-1.06 3.22-2.2 4.7-.32.38-.63.68-.95 1.06l-.3.4s0 .03-.1.03c-1.16 1.4-1.7 2.8-1.7 4.3 0 2.28 1.16 4.27 3.25 5.38-1.25.68-2.3 1.14-3.65 1.57l-1.26.38m-5.75-16.34c-2.3-.05-4.18-1.96-4.18-4.3 0-2.37 1.88-4.24 4.18-4.28 2.4.04 4.28 1.9 4.28 4.3 0 2.32-1.88 4.23-4.28 4.28" stroke="#000" stroke-opacity="0" stroke-width=".96" fill="#f0424d"/><path d="M1179.47 1041.23c0 3.02-.3 3.82-.94 4.55-.52.42-1.15.72-2.4.72h-4.4c-1.45 0-2.3-.2-2.92-.8-.93-.94-1.13-2.1-1.13-6.42 0-4.33.2-5.47 1.14-6.4.64-.6 1.48-.82 2.94-.82h4.4c1.24 0 1.87.26 2.3.73.72.67 1.03 1.64 1.03 4.32h-2.72c-.1-1.87-.2-2.17-.3-2.34-.22-.17-.43-.25-1.05-.25h-3.35c-.83 0-1.04.08-1.25.3-.2.25-.3.76-.3 4.45 0 3.7.1 4.2.3 4.46.2.2.42.3 1.25.3h3.35c.62 0 .94-.1 1.15-.26.1-.17.2-.72.2-2.55h2.72m4.7-3.26h6.58c0-2.42-.1-2.98-.42-3.23-.1-.13-.3-.26-1.14-.26h-3.36c-.83 0-1.04.1-1.25.3-.32.26-.43.72-.43 3.2zm0 2.2c0 2.85.2 3.4.42 3.6.2.27.4.3 1.24.3h3.76c.53 0 .73-.12.94-.3.2-.16.2-.46.32-1.77h2.7c-.1 2.25-.3 3.05-1.03 3.78-.42.46-1.05.72-2.4.72h-4.6c-1.46 0-2.3-.2-2.93-.8-.94-.94-1.25-2.1-1.25-6.42 0-4.33.3-5.47 1.25-6.4.63-.6 1.47-.82 2.93-.82h3.86c1.46 0 2.4.26 2.92.8.94.95 1.15 2.05 1.15 6.3v.72c0 .2 0 .3-.3.3h-9m20.27 3.52c-.2.25-.63.34-1.46.34h-2.1c-.83 0-1.56-.22-2.6-.77l-.2-.08v-7.87c1.03-.55 1.76-.8 2.7-.8h2.2c.83 0 1.25.08 1.46.34.42.38.52 1.18.52 4.4 0 3.24-.1 4-.52 4.43zm-.84-11.68h-1.88c-1.25 0-1.88.26-3.65 1.8v-1.76h-2.83v17.66h2.83v-4.92c1.77 1.5 2.4 1.74 3.65 1.74h1.88c1.57 0 2.4-.25 2.93-.9.83-.76 1.15-1.86 1.15-6.36s-.32-5.6-1.15-6.37c-.53-.62-1.36-.88-2.93-.88m17.55.85c-.52-.55-1.25-.85-2.5-.85h-2.3c-1.15 0-1.78.26-3.66 1.8v-5.53c-.85-.52-1.68-.82-2.73-1.03v19.23h2.72v-11.17l.62-.3c.73-.33 1.36-.5 2.1-.5h1.87c.93 0 1.24.08 1.55.38.2.26.32.7.32 1.4v10.2h2.82v-10.4c0-2-.33-2.68-.85-3.23" stroke="#000" stroke-opacity="0" stroke-width=".96" fill="#333c46"/><path d="M1596.6 304.84l56.63 8.75v5.16c0 7.66-25.37 13.86-56.62 13.86-31.24 0-56.6-6.2-56.6-13.86v-5.6z" fill="#8c3123"/><path d="M1596.64 342.12c23.63 0 43.87-3.6 52.3-8.63l2.82-4.86 1.13-4.47v5.53l-18.57 82.28c0 5.14-16.88 9.22-37.7 9.22-20.8 0-37.67-4.08-37.67-9.22l-18.56-82.28v-5.43l4.27 9.4c8.55 4.96 28.57 8.45 51.97 8.45z" fill="#8c3123"/><path d="M1596.63 299.33c31.25 0 56.6 6.22 56.6 13.84s-25.35 13.78-56.6 13.78c-31.26 0-56.62-6.1-56.62-13.78s25.37-13.84 56.63-13.84z" fill="#e05243"/><path d="M1596.62 336.52c29.14 0 53.1-5.3 56.26-12.26l-18.57 82.27c0 5.13-16.87 9.24-37.68 9.24-20.82 0-37.7-4.1-37.7-9.24l-18.56-82.27c3.15 6.95 27.12 12.26 56.26 12.26z" fill="#e05243"/><path d="M1583.3 344.4h24.5v25.35h-24.5V344.4zM1575.88 378.72c6.68 0 12.1 5.6 12.1 12.5s-5.42 12.5-12.1 12.5c-6.67 0-12.1-5.6-12.1-12.5s5.43-12.5 12.1-12.5zM1626.7 403.14h-24.2l12.1-23.3 12.1 23.3z" fill="#fff"/><path d="M1574.56 284.84l56.62 8.75v5.16c0 7.66-25.37 13.86-56.62 13.86-31.25 0-56.6-6.2-56.6-13.86v-5.6z" fill="#8c3123"/><path d="M1574.6 322.12c23.6 0 43.86-3.6 52.3-8.63l2.8-4.86 1.14-4.47v5.53l-18.56 82.28c0 5.14-16.88 9.22-37.7 9.22-20.8 0-37.67-4.08-37.67-9.22l-18.55-82.28v-5.43l4.27 9.4c8.55 4.96 28.57 8.45 51.97 8.45z" fill="#8c3123"/><path d="M1574.57 279.33c31.25 0 56.62 6.22 56.62 13.84s-25.38 13.78-56.63 13.78c-31.25 0-56.6-6.1-56.6-13.78s25.35-13.84 56.6-13.84z" fill="#e05243"/><path d="M1574.57 316.52c29.14 0 53.1-5.3 56.25-12.26l-18.56 82.27c0 5.13-16.88 9.24-37.7 9.24-20.8 0-37.68-4.1-37.68-9.24l-18.57-82.27c3.16 6.95 27.13 12.26 56.27 12.26z" fill="#e05243"/><path d="M1561.24 324.4h24.52v25.35h-24.52V324.4zM1553.83 358.72c6.68 0 12.1 5.6 12.1 12.5s-5.42 12.5-12.1 12.5c-6.67 0-12.1-5.6-12.1-12.5s5.43-12.5 12.1-12.5zM1604.65 383.14h-24.2l12.1-23.3 12.1 23.3z" fill="#fff"/><path d="M1556.6 264.84l56.63 8.75v5.16c0 7.66-25.37 13.86-56.62 13.86-31.24 0-56.6-6.2-56.6-13.86v-5.6z" fill="#8c3123"/><path d="M1556.64 302.12c23.63 0 43.87-3.6 52.3-8.63l2.82-4.86 1.13-4.47v5.53l-18.57 82.28c0 5.14-16.88 9.22-37.7 9.22-20.8 0-37.67-4.08-37.67-9.22l-18.56-82.28v-5.43l4.27 9.4c8.55 4.96 28.57 8.45 51.97 8.45z" fill="#8c3123"/><path d="M1556.63 259.33c31.25 0 56.6 6.22 56.6 13.84s-25.35 13.78-56.6 13.78c-31.26 0-56.62-6.1-56.62-13.78s25.37-13.84 56.63-13.84z" fill="#e05243"/><path d="M1556.62 296.52c29.14 0 53.1-5.3 56.26-12.26l-18.57 82.27c0 5.13-16.87 9.24-37.68 9.24-20.82 0-37.7-4.1-37.7-9.24l-18.56-82.27c3.15 6.95 27.12 12.26 56.26 12.26z" fill="#e05243"/><path d="M1543.3 304.4h24.5v25.35h-24.5V304.4zM1535.88 338.72c6.68 0 12.1 5.6 12.1 12.5s-5.42 12.5-12.1 12.5c-6.67 0-12.1-5.6-12.1-12.5s5.43-12.5 12.1-12.5zM1586.7 363.14h-24.2l12.1-23.3 12.1 23.3z" fill="#fff"/><path d="M960 234.6c0-2.75 2.24-5 5-5h260.94c2.76 0 5 2.25 5 5v173.72c0 2.76-2.24 5-5 5H965c-2.76 0-5-2.24-5-5z" stroke="#0766ae" stroke-width="5" fill="#0766ae" fill-opacity=".05"/><path d="M1234.44 321.46l254.35-1.1" stroke="#000" stroke-width="2" fill="none"/><path d="M1234.47 322.46h-1.03v-2h1.02z"/><path d="M1504.06 320.3l-14.25 4.68-.03-9.27z" stroke="#000" stroke-width="2"/><path d="M2206 234.6c0-2.75 2.23-5 5-5h260.93c2.76 0 5 2.25 5 5v173.72c0 2.76-2.24 5-5 5H2211c-2.77 0-5-2.24-5-5z" stroke="#0766ae" stroke-width="5" fill="#0766ae" fill-opacity=".05"/><path d="M1799.13 479.32c-.75 0-1.34.1-1.93.28-.6.2-1.04.5-1.64.8-.44.35-.74.7-1.03 1.18-.3.46-.6.95-.75 1.47-.3.6-.44 1.08-.44 1.67-.15.6-.15 1.08-.15 1.67 0 .58 0 1.1.14 1.7 0 .55.15 1.1.44 1.63.15.56.45 1 .75 1.5.3.45.74.84 1.18 1.18.46.33.9.6 1.5.78.6.2 1.18.3 1.93.3.74 0 1.48-.1 2.07-.3.6-.17 1.04-.42 1.5-.77.43-.33.88-.72 1.17-1.17.3-.45.6-.97.75-1.5l.44-1.63c.15-.6.15-1.12.15-1.7 0-.6 0-1.1-.14-1.68-.15-.6-.15-1.12-.44-1.67-.15-.52-.45-.98-.75-1.47-.3-.48-.74-.83-1.18-1.18-.46-.35-.9-.6-1.5-.8-.6-.17-1.33-.28-2.07-.28zm53.26 0c-.6 0-1.34.1-1.8.28-.58.17-1.03.42-1.32.8-.45.3-.74.7-.9 1.12-.14.45-.3.9-.3 1.4 0 .55.16 1.03.3 1.45.16.42.45.73.75 1.05.44.27.74.52 1.2.7l1.32.55 1.2.45c.43.18.88.35 1.18.56.3.17.6.42.74.73.3.25.44.6.44 1.02 0 .3-.14.6-.28.9 0 .28-.3.5-.45.67-.3.2-.44.3-.74.4-.3.07-.74.1-1.04.1-.45.04-.75-.03-1.05-.13-.3-.1-.6-.24-.9-.42-.3-.17-.58-.42-.73-.66-.15-.3-.3-.53-.45-.85l-1.92.7c.14.52.3.94.74 1.4.28.4.58.73 1.03 1.04.44.27.9.48 1.48.65.46.14 1.05.24 1.64.24.74 0 1.34-.1 1.93-.28.45-.18.9-.42 1.48-.8.3-.35.75-.77.9-1.26.3-.52.44-1.1.44-1.78 0-.6-.16-1.14-.3-1.56-.3-.45-.6-.84-.9-1.15-.3-.3-.6-.56-1.04-.8l-1.33-.6-1.34-.45c-.45-.14-.75-.3-1.2-.48-.3-.18-.6-.35-.74-.6-.14-.2-.3-.48-.3-.83 0-.48.16-.9.6-1.18.3-.3.9-.45 1.5-.45.28 0 .58.04.88.1.3.08.6.18.74.32.15.1.44.23.6.4.14.18.14.36.3.56l1.92-.62c-.15-.4-.3-.73-.6-1.08-.3-.32-.6-.63-.9-.87-.28-.26-.73-.43-1.17-.57-.6-.14-1.04-.2-1.64-.2zm37.4.25v1.95h3.84v11.73h2.08v-11.73h3.86v-1.95zm-81.62 0v13.68h2.67v-5.05h3.26c.6 0 1.05-.07 1.5-.17.44-.14.9-.32 1.18-.53.3-.2.6-.45.9-.73.3-.28.44-.55.6-.9l.43-.98v-1.02c0-.55 0-1.04-.14-1.56-.15-.56-.44-.98-.9-1.4-.28-.4-.73-.73-1.32-1-.6-.25-1.34-.4-2.23-.4zm13.2 0v13.68h9.8v-2.5h-7.13v-3.32h3.86v-2.5h-3.85v-2.86h6.68v-2.5zm12.6 0v13.68h2.54v-9.02l.3.52.3.5 5.33 8h2.38v-13.68h-2.53v8.91l-.3-.56-.3-.5-5.33-7.85zm26.13 0v13.68h2.1v-6.13h6.22v6.13h2.08v-13.68h-2.08v5.64h-6.23v-5.63zm13.96 0v13.68h2.07v-13.68zm5.64 0v13.68h2.07v-6.13h4.16v-1.9h-4.16v-3.74h6.53v-1.9zm-80.57 2.3c.44 0 .74.03 1.18.17.3.14.6.3.75.52.3.24.45.5.75.8.14.3.3.6.3.94.14.35.3.66.3 1.05v1.04c0 .55 0 1-.16 1.52-.15.56-.3 1-.6 1.46-.14.5-.44.8-.88 1.12-.45.28-1.04.42-1.63.42-.6 0-1.04-.14-1.5-.42-.43-.28-.73-.6-1.03-1.05-.3-.48-.44-.94-.6-1.46-.14-.57-.14-1.1-.14-1.6v-1.02c.15-.38.15-.7.3-1.04.15-.35.3-.67.44-.94.15-.32.3-.56.6-.8.3-.2.6-.42.9-.53.28-.14.73-.2 1.03-.2zm11.72.2h3.4c.3 0 .6.04.9.14l.45.46c.14.18.3.4.3.6.14.2.14.4.14.62 0 .2 0 .42-.15.63 0 .25-.16.43-.3.6-.15.18-.3.32-.6.42-.15.1-.44.17-.74.17h-3.4z" stroke="#000" stroke-opacity="0" stroke-width="1.07"/><path d="M1762.18 481.93l-6.08 2.23.44 2.9 5.8-2.13c-.16-1.05-.16-1.95-.16-3m27-6.72c-.44-.86-1.03-1.73-1.48-2.53l-6.08 2.23c.6.7 1.18 1.53 1.78 2.4z" stroke="#000" stroke-opacity="0" stroke-width="1.07" fill="#db212f"/><path d="M1775.68 473.47c1.34.63 2.38 1.32 3.4 2.37l6.1-2.23c-1.78-2.36-4-4.3-6.83-5.63-8.75-4.07-19.14-.28-23.15 8.43-1.33 2.85-1.92 5.57-1.63 8.7l6.1-2.23c.13-1.32.43-2.64 1.03-3.9 2.67-5.67 9.34-8.1 14.98-5.46" stroke="#000" stroke-opacity="0" stroke-width="1.07" fill="#db212f"/><path d="M1757 486.9l-5.8 2.1c.6 2.13 1.48 4.1 2.67 5.92l6.08-2.23c-1.63-1.68-2.52-3.52-2.96-5.8" stroke="#000" stroke-opacity="0" stroke-width="1.07" fill="#ea2227"/><path d="M1782.2 484.6c-.14 1.34-.44 2.66-1.03 3.9-2.67 5.7-9.35 8.13-14.98 5.48-1.35-.6-2.4-1.4-3.28-2.33l-6.08 2.23c1.78 2.54 3.86 4.3 6.67 5.64 8.77 4.07 19.16.28 23.3-8.43 1.2-2.86 1.8-5.58 1.5-8.7l-6.1 2.2z" stroke="#000" stroke-opacity="0" stroke-width="1.07" fill="#db212f"/><path d="M1783.7 477.16l-5.8 2.13c1.05 1.9 1.64 4.13 1.5 6.36l6.07-2.23c-.14-2.16-.74-4.28-1.78-6.27" stroke="#000" stroke-opacity="0" stroke-width="1.07" fill="#ea2227"/><path d="M2045.93 1157.32c-.75 0-1.34.1-1.93.28-.6.2-1.04.5-1.63.8-.45.35-.75.7-1.04 1.18-.3.46-.6.95-.75 1.47-.3.6-.44 1.08-.44 1.67-.15.6-.15 1.08-.15 1.67 0 .58 0 1.1.14 1.7 0 .55.15 1.1.44 1.63.15.56.45 1 .75 1.5.3.45.74.84 1.18 1.18.46.33.9.6 1.5.78.6.2 1.18.3 1.93.3.74 0 1.48-.1 2.07-.3.6-.17 1.04-.42 1.5-.77.43-.33.88-.72 1.17-1.17.3-.45.6-.97.75-1.5l.44-1.63c.15-.6.15-1.12.15-1.7 0-.6 0-1.1-.14-1.68-.15-.6-.15-1.12-.44-1.67-.15-.52-.45-.98-.75-1.47-.3-.48-.74-.83-1.18-1.18-.46-.35-.9-.6-1.5-.8-.6-.17-1.33-.28-2.07-.28zm53.26 0c-.6 0-1.34.1-1.8.28-.58.17-1.02.42-1.32.8-.45.3-.74.7-.9 1.12-.14.45-.3.9-.3 1.4 0 .55.16 1.03.3 1.45.16.42.45.73.75 1.05.45.27.74.52 1.2.7l1.32.55 1.2.45c.44.18.88.35 1.18.56.3.17.6.42.74.73.3.25.44.6.44 1.02 0 .3-.13.6-.28.9 0 .28-.3.5-.45.67-.3.2-.44.3-.74.4-.3.07-.74.1-1.04.1-.45.04-.75-.03-1.05-.13-.3-.1-.6-.24-.9-.42-.28-.17-.58-.42-.73-.66-.15-.3-.3-.53-.44-.85l-1.93.7c.15.52.3.94.74 1.4.3.4.58.73 1.03 1.04.44.27.9.48 1.48.65.46.14 1.05.24 1.64.24.75 0 1.34-.1 1.93-.28.45-.18.9-.42 1.5-.8.28-.35.73-.77.88-1.26.3-.52.44-1.1.44-1.78 0-.6-.16-1.14-.3-1.56-.3-.45-.6-.84-.9-1.15-.3-.3-.6-.56-1.03-.8l-1.34-.6-1.34-.45c-.45-.14-.75-.3-1.2-.48-.3-.18-.6-.35-.73-.6-.15-.2-.3-.48-.3-.83 0-.48.15-.9.6-1.18.3-.3.88-.45 1.48-.45.3 0 .6.04.9.1.28.08.58.18.73.32.15.1.44.23.6.4.14.18.14.36.3.56l1.92-.62c-.15-.4-.3-.73-.6-1.08-.3-.32-.6-.63-.9-.87-.28-.26-.73-.43-1.17-.57-.6-.14-1.04-.2-1.64-.2zm37.4.25v1.95h3.84v11.73h2.08v-11.73h3.86v-1.95zm-81.62 0v13.68h2.67v-5.05h3.26c.6 0 1.05-.07 1.5-.17.44-.14.9-.32 1.18-.53.3-.2.6-.45.9-.73.3-.28.44-.55.6-.9l.43-.98v-1.02c0-.55 0-1.04-.14-1.56-.14-.56-.44-.98-.9-1.4-.28-.4-.73-.73-1.32-1-.6-.25-1.34-.4-2.23-.4zm13.2 0v13.68h9.8v-2.5h-7.13v-3.32h3.86v-2.5h-3.85v-2.86h6.68v-2.5zm12.62 0v13.68h2.52v-9.02l.3.52.3.5 5.33 8h2.38v-13.68h-2.52v8.91l-.3-.56-.3-.5-5.33-7.85zm26.1 0v13.68h2.1v-6.13h6.22v6.13h2.08v-13.68h-2.08v5.64H2109v-5.63zm13.96 0v13.68h2.08v-13.68zm5.64 0v13.68h2.07v-6.13h4.16v-1.9h-4.16v-3.74h6.53v-1.9zm-80.57 2.3c.44 0 .74.03 1.18.17.3.14.6.3.76.52.3.24.44.5.74.8.15.3.3.6.3.94.14.35.3.66.3 1.05v1.04c0 .55 0 1-.16 1.52-.15.56-.3 1-.6 1.46-.14.5-.44.8-.88 1.12-.45.28-1.04.42-1.63.42-.6 0-1.04-.14-1.5-.42-.43-.28-.73-.6-1.03-1.05-.3-.48-.44-.94-.6-1.46-.14-.57-.14-1.1-.14-1.6v-1.02c.15-.38.15-.7.3-1.04.15-.35.3-.67.44-.94.15-.32.3-.56.6-.8.3-.2.6-.42.9-.53.28-.14.73-.2 1.03-.2zm11.72.2h3.4c.3 0 .6.04.9.14l.45.46c.15.18.3.4.3.6.14.2.14.4.14.62 0 .2 0 .42-.15.63 0 .25-.15.43-.3.6-.15.18-.3.32-.6.42-.15.1-.44.17-.74.17h-3.4z" stroke="#000" stroke-opacity="0" stroke-width="1.07"/><path d="M2008.98 1159.93l-6.08 2.23.44 2.9 5.8-2.13c-.16-1.05-.16-1.95-.16-3m27-6.72c-.44-.86-1.03-1.73-1.48-2.53l-6.08 2.23c.6.7 1.18 1.53 1.78 2.4z" stroke="#000" stroke-opacity="0" stroke-width="1.07" fill="#db212f"/><path d="M2022.48 1151.47c1.34.63 2.38 1.32 3.42 2.37l6.08-2.23c-1.78-2.36-4-4.3-6.83-5.63-8.75-4.07-19.14-.28-23.14 8.43-1.33 2.85-1.92 5.57-1.63 8.7l6.1-2.23c.14-1.32.43-2.64 1.03-3.9 2.67-5.67 9.34-8.1 14.98-5.46" stroke="#000" stroke-opacity="0" stroke-width="1.07" fill="#db212f"/><path d="M2003.8 1164.9l-5.8 2.1c.6 2.13 1.48 4.1 2.67 5.92l6.08-2.23c-1.63-1.68-2.52-3.52-2.96-5.8" stroke="#000" stroke-opacity="0" stroke-width="1.07" fill="#ea2227"/><path d="M2029 1162.6c-.14 1.34-.43 2.66-1.03 3.9-2.67 5.7-9.35 8.13-14.98 5.48-1.35-.6-2.4-1.4-3.28-2.33l-6.08 2.23c1.78 2.54 3.86 4.3 6.68 5.64 8.75 4.07 19.14.28 23.3-8.43 1.18-2.86 1.77-5.58 1.47-8.7l-6.1 2.2z" stroke="#000" stroke-opacity="0" stroke-width="1.07" fill="#db212f"/><path d="M2030.5 1155.16l-5.8 2.13c1.05 1.9 1.64 4.13 1.5 6.36l6.08-2.23c-.15-2.16-.75-4.28-1.78-6.27" stroke="#000" stroke-opacity="0" stroke-width="1.07" fill="#ea2227"/><path d="M95.9 434.33c0-2.76 2.24-5 5-5h260.94c2.77 0 5 2.24 5 5v173.7c0 2.77-2.23 5-5 5H100.9c-2.76 0-5-2.23-5-5z" stroke="#0766ae" stroke-width="5" fill="#0766ae" fill-opacity=".05"/><path d="M0 609.33h455.06v160H0z" stroke="#000" stroke-opacity="0" stroke-width="2" fill="#fff" fill-opacity="0"/><use xlink:href="#j" transform="matrix(1,0,0,1,5,614.3333333333334) translate(90.03703703703704 52.04166666666667)"/><use xlink:href="#k" transform="matrix(1,0,0,1,5,614.3333333333334) translate(305.8888888888889 52.04166666666667)"/><use xlink:href="#l" transform="matrix(1,0,0,1,5,614.3333333333334) translate(35.2222222222222 116.04166666666667)"/><use xlink:href="#m" transform="matrix(1,0,0,1,5,614.3333333333334) translate(304.25925925925924 116.04166666666667)"/><path d="M882.47 89.33h455.06v160H882.47z" stroke="#000" stroke-opacity="0" stroke-width="2" fill="#fff" fill-opacity="0"/><use xlink:href="#j" transform="matrix(1,0,0,1,887.4686181292454,94.33333333333334) translate(90.03703703703704 52.04166666666667)"/><use xlink:href="#k" transform="matrix(1,0,0,1,887.4686181292454,94.33333333333334) translate(305.8888888888889 52.04166666666667)"/><use xlink:href="#n" transform="matrix(1,0,0,1,887.4686181292454,94.33333333333334) translate(21.962962962962933 116.04166666666667)"/><use xlink:href="#m" transform="matrix(1,0,0,1,887.4686181292454,94.33333333333334) translate(317.51851851851853 116.04166666666667)"/><path d="M2119 89.33h455.06v160H2119z" stroke="#000" stroke-opacity="0" stroke-width="2" fill="#fff" fill-opacity="0"/><use xlink:href="#j" transform="matrix(1,0,0,1,2124,94.33333333333334) translate(90.03703703703704 52.04166666666667)"/><use xlink:href="#k" transform="matrix(1,0,0,1,2124,94.33333333333334) translate(305.8888888888889 52.04166666666667)"/><use xlink:href="#o" transform="matrix(1,0,0,1,2124,94.33333333333334) translate(29.2222222222222 116.04166666666667)"/><use xlink:href="#m" transform="matrix(1,0,0,1,2124,94.33333333333334) translate(310.25925925925924 116.04166666666667)"/><path d="M1740 749.33c0-2.76 2.24-5 5-5h869.93c2.76 0 5 2.24 5 5v430c0 2.76-2.24 5-5 5H1745c-2.76 0-5-2.24-5-5z" stroke="#f0424d" stroke-width="4" fill="#fff"/><path d="M1873.64 958.3c-1-1.03-2.4-1.68-4-1.68-1.4 0-2.8.56-3.8 1.68-1.2 1.1-1.8 2.4-1.8 4 0 1.57.6 2.96 1.8 4.07 1 1.12 2.4 1.68 3.8 1.68 1.6 0 3-.65 4-1.68 1-1.02 1.6-2.4 1.6-4.08 0-1.5-.4-2.9-1.6-4zm-4 78c1.6 0 3-.65 4-1.67s1.6-2.42 1.6-4c0-1.67-.6-3.06-1.6-4.08s-2.4-1.67-4-1.67c-1.4 0-2.8.55-3.8 1.67-1.2 1.1-1.8 2.5-1.8 4.08 0 1.5.6 2.88 1.8 4 1 1.1 2.4 1.67 3.8 1.67zm30.6-17.27c1.6-.38 2.6-1.3 3.4-2.6l.2-.28c.6-1.3.8-2.6.4-4.1-.4-1.38-1.2-2.68-2.6-3.42l-.2-.1c-1.2-.74-2.6-.93-4-.46-1.4.28-2.8 1.3-3.6 2.6-.6 1.4-.8 2.78-.4 4.36.4 1.5 1.2 2.7 2.6 3.44 1.2.83 2.8.93 4.2.56zm-24.8-28.42c-1.4-1.48-3.4-2.4-5.8-2.4-2.2 0-4 .83-5.6 2.4-1.6 1.5-2.4 3.54-2.4 5.86 0 2.32.8 4.27 2.4 5.85 1.4 1.5 3.4 2.43 5.6 2.43 2.2 0 4.4-.93 5.8-2.42 1.6-1.57 2.4-3.52 2.4-5.84 0-2.23-.8-4.18-2.4-5.85zm-3.2-9.65c3.4.56 6 1.95 8.4 4.37.4.46.8.74 1 1.2l5.6-3.34c-.8-2.32-.8-4.55-.2-6.96.8-3.07 2.8-5.76 5.8-7.43v-.1c2.8-1.68 5.8-2.05 9-1.2 3.2.92 5.8 2.87 7.4 5.75 1.6 2.97 2 6.3 1.2 9.28-.8 3.07-2.8 5.76-5.6 7.52l-.8.47c-2.8 1.3-5.6 1.48-8.4.74-2.4-.65-4.2-1.76-5.8-3.62l-5.6 3.25c.6 1.85 1 3.52 1 5.56 0 1.95-.4 3.8-1 5.57l5.6 3.25c1.6-1.76 3.6-2.97 5.8-3.62 3-.83 6.2-.46 9.2 1.2l.2.1c2.8 1.77 4.6 4.18 5.4 7.43.8 3.24.4 6.3-1.2 9.28l-.2.18c-1.6 2.88-4 4.64-7.2 5.57-3 .84-6.2.47-9.2-1.2v-.1c-2.8-1.67-4.6-4.18-5.6-7.43-.6-2.4-.6-4.64.2-6.96l-5.6-3.25c-.2.36-.6.73-1 1.1-2.2 2.33-5.2 3.9-8.4 4.37v6.6c2.4.55 4.4 1.57 6 3.33 2.2 2.23 3.6 5.3 3.6 8.73 0 3.35-1.2 6.23-3.6 8.64-2.2 2.23-5.2 3.62-8.6 3.62-3.2 0-6.2-1.4-8.4-3.63-2.4-2.4-3.6-5.3-3.6-8.64 0-3.43 1.4-6.5 3.6-8.73 1.6-1.76 3.6-2.87 6-3.34v-6.6c-3.2-.46-6.2-2.13-8.4-4.36-3-3.15-4.6-6.77-4.6-11.14 0-4.36 1.8-8.26 4.6-11.14 2.4-2.42 5-3.8 8.4-4.37v-6.6c-2.4-.55-4.4-1.57-6-3.33-2.4-2.42-3.6-5.3-3.6-8.73 0-3.35 1.2-6.23 3.6-8.65 2.2-2.4 5.2-3.62 8.4-3.62 3.4 0 6.4 1.4 8.6 3.62 2.2 2.23 3.6 5.3 3.6 8.64 0 3.42-1.2 6.3-3.6 8.72-1.6 1.67-3.6 2.88-6 3.34v6.6zm31.4-4.36v-.1c-.8-1.3-2-2.23-3.4-2.6-1.4-.38-3-.2-4.2.55-1.4.84-2.2 2.05-2.6 3.53-.4 1.5-.2 2.88.4 4.27l.2.1c.6 1.3 2 2.22 3.2 2.6 1.4.37 3 .18 4.4-.56v-.1c1.4-.75 2.2-2.05 2.6-3.44.4-1.4.2-2.97-.6-4.27m24.8 1.85h6.2v19.4l9-10.12h7.6l-11 11.7 11 14.86h-7.2l-9.4-13.3v13.3h-6.2v-35.85m30 22.65c0 3.35 2.2 8.18 8 8.18 3.4 0 5.6-1.86 6.8-4.28.6-1.2 1-2.4 1-3.8.2-1.3-.2-2.5-.6-3.72-1.2-2.5-3.6-4.73-7.4-4.73-5 0-7.8 4.18-7.8 8.35zm22 13.2h-6.2v-3.82c-1.6 3.07-5.2 4.65-8.8 4.65-8.4 0-13.2-6.6-13.2-14.12 0-8.35 5.8-14.1 13.2-14.1 4.8 0 7.6 2.6 8.8 4.73v-3.9h6.2v26.56m7.2-21.65h-3.2v-4.92h3.2v-1.48c0-7.9 5.8-8.45 10.4-8.45v4.92c-1.6 0-4.2 0-4.2 3.7v1.3h4.2v4.93h-4.2v21.64h-6.2v-21.65m14.6-14.2h6.2v19.4l9-10.12h7.6l-11 11.7 11 14.86h-7.2l-9.4-13.3v13.3h-6.2v-35.85m30 22.65c0 3.35 2.2 8.18 7.8 8.18 3.6 0 5.8-1.86 7-4.28.6-1.2 1-2.4 1-3.8 0-1.2-.2-2.5-.6-3.72-1.2-2.5-3.6-4.73-7.4-4.73-5 0-7.8 4.18-7.8 8.35zm22 13.2h-6.2v-3.82c-1.8 3.07-5.2 4.65-8.8 4.65-8.4 0-13.4-6.6-13.4-14.12 0-8.35 6-14.1 13.4-14.1 4.8 0 7.6 2.6 8.8 4.73v-3.9h6.2v26.56" stroke="#000" stroke-opacity="0" fill="#231f20"/><path d="M2488.74 1054.43l-29.75 14.3c-.3.2-.47.4-.56.7l-7.37 32.2c0 .3 0 .6.18.9l20.64 25.8c.17.3.45.4.8.4h33c.36 0 .64-.1.82-.4l20.63-25.8c.2-.3.2-.6.2-.9l-7.38-32.2c-.1-.3-.28-.5-.55-.7l-29.76-14.3c-.27-.1-.64-.1-.92 0z" stroke="#000" stroke-opacity="0" stroke-width=".42" fill="#0766ae"/><path d="M2524.57 1054.53l-11.7 4.3c-.1 0-.18.1-.27.2l-6.26 10.8v.3l2.1 12.3c0 .1.1.2.2.3l9.58 8c.1.1.18.1.28.1h12.43c.18 0 .28 0 .37-.1l9.58-8c.1-.1.1-.2.1-.3l2.2-12.3c0-.1 0-.2-.1-.3l-6.16-10.8c-.1-.1-.2-.2-.28-.2l-11.7-4.3h-.37z" stroke="#000" stroke-opacity="0" stroke-width=".42" fill="#6694c9"/><path d="M2522.55 1068.43c.18-.2.46-.4.74-.6.17-.2.45-.3.72-.5.28-.1.55-.2.92-.3.37-.1.65-.1 1.02-.1.55 0 1.1.1 1.65.3.48.2.84.5 1.2.9.38.4.56.9.75 1.4.18.6.18 1.1.18 1.7v7.2h-2.94v-7.2c0-.5-.2-1-.47-1.5-.37-.3-.83-.5-1.3-.5-.46 0-.82.1-1.2.3-.45.2-.73.4-1.1.8v8.1h-3.04v-11.3h1.93c.27 0 .64.2.73.5zM2478.9 1080.83h6.43v12.6h.1c.64-1.1 1.3-2.1 1.93-3.2l6.54-9.4h7.83l-9.4 12.1 9.95 16.4h-7.55l-7-12.3-2.4 3v9.3h-6.44z" stroke="#000" stroke-opacity="0" stroke-width=".42" fill="#fff"/><path d="M2462.4 1138.43v6.5l6.08-6.5h4.23l-6.06 6.2 6.72 9.4h-4.33l-4.7-7-1.93 2v5h-3.4v-15.6zM2477.32 1142.73v1.6h.1c.36-.7.82-1.1 1.56-1.4.55-.3 1.2-.5 1.84-.5.74 0 1.38.1 2.12.4.46.2.92.5 1.2.9.37.4.55.9.64 1.5.2.6.2 1.2.2 1.9v6.9h-3.05v-6.4c0-.9-.2-1.6-.46-2.1-.28-.4-.83-.6-1.57-.6-.83 0-1.47.2-1.84.7-.37.5-.56 1.3-.56 2.5v5.9h-3.13v-11.3zM2487.73 1144.43c.37-.5.74-.9 1.3-1.2.54-.3 1-.5 1.65-.6.64-.1 1.2-.2 1.84-.2.64 0 1.1 0 1.75.1.55.1 1 .2 1.57.5.46.2.82.5 1.2 1 .36.5.45 1 .45 1.6v5.9c0 .5 0 1 .1 1.5 0 .3.08.7.26 1h-3.13c-.1-.2-.1-.3-.1-.5-.08-.2-.08-.4-.08-.6-.56.5-1.1.9-1.75 1.1-.74.2-1.4.3-2.12.3-.46 0-.92-.1-1.48-.2-.46-.1-.83-.3-1.2-.6-.36-.3-.64-.6-.82-1.1-.2-.5-.28-.9-.28-1.5-.1-.5.1-1 .28-1.6.27-.4.55-.7.92-.9.37-.3.73-.5 1.2-.6l1.38-.3c.46-.1.92-.1 1.38-.2.46 0 .83-.1 1.2-.2.36 0 .55-.2.83-.4.26-.1.35-.4.26-.7 0-.3 0-.5-.18-.8-.1-.2-.2-.3-.37-.4-.18-.2-.45-.2-.64-.3h-.82c-.47 0-.93.1-1.4.4-.45.3-.63.8-.63 1.3h-3.12c.1-.7.27-1.3.55-1.8zm6.17 4.4c-.18 0-.46.1-.64.1-.2.1-.46.1-.74.1-.18.1-.46.1-.74.1-.18.1-.46.1-.64.2-.28.1-.46.2-.65.3-.2.1-.28.3-.38.5-.1.2-.18.4-.18.7 0 .3.1.5.18.7.1.2.28.3.46.4.2.2.37.2.56.3h.73c.56.1.93 0 1.4-.3.35-.1.54-.4.72-.7.18-.3.27-.5.36-.9v-1.8c-.1.1-.27.2-.46.3zM2506.06 1142.73v2.1h-2.2v5.6c0 .5.08.9.27 1 .1.2.46.3 1 .3h.47c.18 0 .37-.1.46-.1v2.4c-.28.1-.55.1-.83.1h-.92c-.54 0-.9 0-1.37-.1-.46 0-.74-.2-1.1-.4-.38-.2-.65-.4-.84-.8-.2-.4-.28-.8-.28-1.3v-6.7h-1.84v-2.1h1.84v-3.4h3.13v3.4zM2507.63 1141.03v-2.6h3.13v2.6zm3.13 1.7v11.3h-3.13v-11.3zM2516 1154.03l-3.86-11.3h3.22l2.4 7.7h.1l2.4-7.7h3.03l-3.8 11.3zM2527.9 1151.33c.45.5 1.1.7 2.02.7.55 0 1.1-.2 1.56-.5.46-.2.74-.5.83-1h2.78c-.46 1.4-1.1 2.3-2.03 2.9-1 .7-2.03.9-3.22.9-.93 0-1.66-.1-2.4-.4-.74-.3-1.3-.7-1.84-1.2-.56-.6-.93-1.2-1.2-1.9-.3-.8-.38-1.6-.38-2.4 0-.9.1-1.6.46-2.4.56-1.5 1.48-2.5 2.95-3.1.83-.4 1.57-.5 2.4-.5.92 0 1.65.2 2.48.6.75.3 1.3.8 1.76 1.5.46.6.83 1.3 1.02 2.1.18.9.27 1.6.18 2.5h-8.1c0 1 .27 1.8.73 2.2zm3.5-5.9c-.38-.4-.93-.7-1.67-.7-.46 0-.83.1-1.3.3-.26.2-.54.3-.72.6-.18.3-.36.5-.45.8-.1.3-.1.5-.1.8h5.07c-.1-.7-.37-1.3-.83-1.8z" stroke="#000" stroke-opacity="0" stroke-width=".42"/><path d="M2055.24 996.46H2185" stroke="#000" stroke-width="2" fill="none"/><path d="M2055.27 997.46h-1.03v-2h1.03z"/><path d="M2200.26 996.46l-14.27 4.64v-9.27z" stroke="#000" stroke-width="2"/><path d="M2206 909.6c0-2.75 2.23-5 5-5h260.93c2.76 0 5 2.25 5 5v173.72c0 2.76-2.24 5-5 5H2211c-2.77 0-5-2.24-5-5z" stroke="#0766ae" stroke-width="5" fill="#0766ae" fill-opacity=".05"/><path d="M1799.13 1154.32c-.75 0-1.34.1-1.93.28-.6.2-1.04.5-1.64.8-.44.35-.74.7-1.03 1.18-.3.46-.6.95-.75 1.47-.3.6-.44 1.08-.44 1.67-.15.6-.15 1.08-.15 1.67 0 .58 0 1.1.14 1.7 0 .55.15 1.1.44 1.63.15.56.45 1 .75 1.5.3.45.74.84 1.18 1.18.46.33.9.6 1.5.78.6.2 1.18.3 1.93.3.74 0 1.48-.1 2.07-.3.6-.17 1.04-.42 1.5-.77.43-.33.88-.72 1.17-1.17.3-.45.6-.97.75-1.5l.44-1.63c.15-.6.15-1.12.15-1.7 0-.6 0-1.1-.14-1.68-.15-.6-.15-1.12-.44-1.67-.15-.52-.45-.98-.75-1.47-.3-.48-.74-.83-1.18-1.18-.46-.35-.9-.6-1.5-.8-.6-.17-1.33-.28-2.07-.28zm53.26 0c-.6 0-1.34.1-1.8.28-.58.17-1.03.42-1.32.8-.45.3-.74.7-.9 1.12-.14.45-.3.9-.3 1.4 0 .55.16 1.03.3 1.45.16.42.45.73.75 1.05.44.27.74.52 1.2.7l1.32.55 1.2.45c.43.18.88.35 1.18.56.3.17.6.42.74.73.3.25.44.6.44 1.02 0 .3-.14.6-.28.9 0 .28-.3.5-.45.67-.3.2-.44.3-.74.4-.3.07-.74.1-1.04.1-.45.04-.75-.03-1.05-.13-.3-.1-.6-.24-.9-.42-.3-.17-.58-.42-.73-.66-.15-.3-.3-.53-.45-.85l-1.92.7c.14.52.3.94.74 1.4.28.4.58.73 1.03 1.04.44.27.9.48 1.48.65.46.14 1.05.24 1.64.24.74 0 1.34-.1 1.93-.28.45-.18.9-.42 1.48-.8.3-.35.75-.77.9-1.26.3-.52.44-1.1.44-1.78 0-.6-.16-1.14-.3-1.56-.3-.45-.6-.84-.9-1.15-.3-.3-.6-.56-1.04-.8l-1.33-.6-1.34-.45c-.45-.14-.75-.3-1.2-.48-.3-.18-.6-.35-.74-.6-.14-.2-.3-.48-.3-.83 0-.48.16-.9.6-1.18.3-.3.9-.45 1.5-.45.28 0 .58.04.88.1.3.08.6.18.74.32.15.1.44.23.6.4.14.18.14.36.3.56l1.92-.62c-.15-.4-.3-.73-.6-1.08-.3-.32-.6-.63-.9-.87-.28-.26-.73-.43-1.17-.57-.6-.14-1.04-.2-1.64-.2zm37.4.25v1.95h3.84v11.73h2.08v-11.73h3.86v-1.95zm-81.62 0v13.68h2.67v-5.05h3.26c.6 0 1.05-.07 1.5-.17.44-.14.9-.32 1.18-.53.3-.2.6-.45.9-.73.3-.28.44-.55.6-.9l.43-.98v-1.02c0-.55 0-1.04-.14-1.56-.15-.56-.44-.98-.9-1.4-.28-.4-.73-.73-1.32-1-.6-.25-1.34-.4-2.23-.4zm13.2 0v13.68h9.8v-2.5h-7.13v-3.32h3.86v-2.5h-3.85v-2.86h6.68v-2.5zm12.6 0v13.68h2.54v-9.02l.3.52.3.5 5.33 8h2.38v-13.68h-2.53v8.91l-.3-.56-.3-.5-5.33-7.85zm26.13 0v13.68h2.1v-6.13h6.22v6.13h2.08v-13.68h-2.08v5.64h-6.23v-5.63zm13.96 0v13.68h2.07v-13.68zm5.64 0v13.68h2.07v-6.13h4.16v-1.9h-4.16v-3.74h6.53v-1.9zm-80.57 2.3c.44 0 .74.03 1.18.17.3.14.6.3.75.52.3.24.45.5.75.8.14.3.3.6.3.94.14.35.3.66.3 1.05v1.04c0 .55 0 1-.16 1.52-.15.56-.3 1-.6 1.46-.14.5-.44.8-.88 1.12-.45.28-1.04.42-1.63.42-.6 0-1.04-.14-1.5-.42-.43-.28-.73-.6-1.03-1.05-.3-.48-.44-.94-.6-1.46-.14-.57-.14-1.1-.14-1.6v-1.02c.15-.38.15-.7.3-1.04.15-.35.3-.67.44-.94.15-.32.3-.56.6-.8.3-.2.6-.42.9-.53.28-.14.73-.2 1.03-.2zm11.72.2h3.4c.3 0 .6.04.9.14l.45.46c.14.18.3.4.3.6.14.2.14.4.14.62 0 .2 0 .42-.15.63 0 .25-.16.43-.3.6-.15.18-.3.32-.6.42-.15.1-.44.17-.74.17h-3.4z" stroke="#000" stroke-opacity="0" stroke-width="1.07"/><path d="M1762.18 1156.93l-6.08 2.23.44 2.9 5.8-2.13c-.16-1.05-.16-1.95-.16-3m27-6.72c-.44-.86-1.03-1.73-1.48-2.53l-6.08 2.23c.6.7 1.18 1.53 1.78 2.4z" stroke="#000" stroke-opacity="0" stroke-width="1.07" fill="#db212f"/><path d="M1775.68 1148.47c1.34.63 2.38 1.32 3.4 2.37l6.1-2.23c-1.78-2.36-4-4.3-6.83-5.63-8.75-4.07-19.14-.28-23.15 8.43-1.33 2.85-1.92 5.57-1.63 8.7l6.1-2.23c.13-1.32.43-2.64 1.03-3.9 2.67-5.67 9.34-8.1 14.98-5.46" stroke="#000" stroke-opacity="0" stroke-width="1.07" fill="#db212f"/><path d="M1757 1161.9l-5.8 2.1c.6 2.13 1.48 4.1 2.67 5.92l6.08-2.23c-1.63-1.68-2.52-3.52-2.96-5.8" stroke="#000" stroke-opacity="0" stroke-width="1.07" fill="#ea2227"/><path d="M1782.2 1159.6c-.14 1.34-.44 2.66-1.03 3.9-2.67 5.7-9.35 8.13-14.98 5.48-1.35-.6-2.4-1.4-3.28-2.33l-6.08 2.23c1.78 2.54 3.86 4.3 6.67 5.64 8.77 4.07 19.16.28 23.3-8.43 1.2-2.86 1.8-5.58 1.5-8.7l-6.1 2.2z" stroke="#000" stroke-opacity="0" stroke-width="1.07" fill="#db212f"/><path d="M1783.7 1152.16l-5.8 2.13c1.05 1.9 1.64 4.13 1.5 6.36l6.07-2.23c-.14-2.16-.74-4.28-1.78-6.27" stroke="#000" stroke-opacity="0" stroke-width="1.07" fill="#ea2227"/><path d="M2119 764.33h455.06v160H2119z" stroke="#000" stroke-opacity="0" stroke-width="2" fill="#fff" fill-opacity="0"/><g><use xlink:href="#j" transform="matrix(1,0,0,1,2124.0000000000005,769.3333333333334) translate(90.03703703703704 52.04166666666667)"/><use xlink:href="#k" transform="matrix(1,0,0,1,2124.0000000000005,769.3333333333334) translate(305.8888888888889 52.04166666666667)"/><use xlink:href="#o" transform="matrix(1,0,0,1,2124.0000000000005,769.3333333333334) translate(29.2222222222222 116.04166666666667)"/><use xlink:href="#m" transform="matrix(1,0,0,1,2124.0000000000005,769.3333333333334) translate(310.25925925925924 116.04166666666667)"/></g><path d="M1432.5 995.34l403.24 1.07" stroke="#000" stroke-width="2" fill="none"/><path d="M1432.53 994.34v2h-1.03v-2z"/><path d="M1851 996.45l-14.28 4.6.03-9.27z" stroke="#000" stroke-width="2"/><path d="M2182.46 590.33l.04 21.97-.74 3-.92 2.16-1.16 1.8-.98 1.16-.93.9-1.1.9-1.4.9-1.75.97-2.37 1.03-3.4 1.13-5.35 1.28-9.92 1.44-25.93 1.35-4.57.06-641-.6-114.05-.58-16.5 1.05-12.3 1.3-9.83 1.47-8.18 1.57-7 1.67-6.07 1.7-5.38 1.76-4.8 1.8-4.36 1.84-3.94 1.87-3.64 1.9-3.35 1.95-3.12 1.98-2.9 2.03-2.74 2.1-2.56 2.12-2.43 2.2-2.3 2.27-2.2 2.33-2.08 2.44-2 2.53-1.9 2.64-1.84 2.77-1.76 2.92-1.68 3.07-1.6 3.25-1.54 3.47-1.46 3.7-1.38 4-1.3 4.32-1.2 4.7-1.07 5.12-.95 5.66-.78 6.28-.57 7.02-.07 1.2-.9 29.02-.93 112.6" stroke="#000" stroke-width="2" fill="none"/><path d="M2183.46 590.36h-2v-1.03h2z"/><path d="M1238.17 886.1l-4.5-14.3 9.26.07z" stroke="#000" stroke-width="2"/><defs><path d="M24-248c93 1 206-16 204 79-1 75-69 88-152 82V0H24v-248zm52 121c47 0 100 7 100-41 0-47-54-39-100-39v80" id="p"/><path d="M133-34C117-15 103 5 69 4 32 3 11-16 11-54c-1-60 55-63 116-61 1-26-3-47-28-47-18 1-26 9-28 27l-52-2c7-38 36-58 82-57s74 22 75 68l1 82c-1 14 12 18 25 15v27c-30 8-71 5-69-32zm-48 3c29 0 43-24 42-57-32 0-66-3-65 30 0 17 8 27 23 27" id="q"/><path d="M123 10C108 53 80 86 19 72V37c35 8 53-11 59-39L3-190h52l48 148c12-52 28-100 44-148h51" id="r"/><path d="M220-157c-53 9-28 100-34 157h-49v-107c1-27-5-49-29-50C55-147 81-57 75 0H25l-1-190h47c2 12-1 28 3 38 10-53 101-56 108 0 13-22 24-43 59-42 82 1 51 116 57 194h-49v-107c-1-25-5-48-29-50" id="s"/><path d="M185-48c-13 30-37 53-82 52C43 2 14-33 14-96s30-98 90-98c62 0 83 45 84 108H66c0 31 8 55 39 56 18 0 30-7 34-22zm-45-69c5-46-57-63-70-21-2 6-4 13-4 21h74" id="t"/><path d="M135-194c87-1 58 113 63 194h-50c-7-57 23-157-34-157-59 0-34 97-39 157H25l-1-190h47c2 12-1 28 3 38 12-26 28-41 61-42" id="u"/><path d="M115-3C79 11 28 4 28-45v-112H4v-33h27l15-45h31v45h36v33H77v99c-1 23 16 31 38 25v30" id="v"/><g id="a"><use transform="matrix(0.14814814814814817,0,0,0.14814814814814817,0,0)" xlink:href="#p"/><use transform="matrix(0.14814814814814817,0,0,0.14814814814814817,35.55555555555556,0)" xlink:href="#q"/><use transform="matrix(0.14814814814814817,0,0,0.14814814814814817,65.18518518518519,0)" xlink:href="#r"/><use transform="matrix(0.14814814814814817,0,0,0.14814814814814817,94.81481481481482,0)" xlink:href="#s"/><use transform="matrix(0.14814814814814817,0,0,0.14814814814814817,142.22222222222223,0)" xlink:href="#t"/><use transform="matrix(0.14814814814814817,0,0,0.14814814814814817,171.85185185185185,0)" xlink:href="#u"/><use transform="matrix(0.14814814814814817,0,0,0.14814814814814817,204.29629629629628,0)" xlink:href="#v"/></g><path d="M135-150c-39-12-60 13-60 57V0H25l-1-190h47c2 13-1 29 3 40 6-28 27-53 61-41v41" id="w"/><path d="M110-194c64 0 96 36 96 99 0 64-35 99-97 99-61 0-95-36-95-99 0-62 34-99 96-99zm-1 164c35 0 45-28 45-65 0-40-10-65-43-65-34 0-45 26-45 65 0 36 10 65 43 65" id="x"/><path d="M190-63c-7 42-38 67-86 67-59 0-84-38-90-98-12-110 154-137 174-36l-49 2c-2-19-15-32-35-32-30 0-35 28-38 64-6 74 65 87 74 30" id="y"/><path d="M137-138c1-29-70-34-71-4 15 46 118 7 119 86 1 83-164 76-172 9l43-7c4 19 20 25 44 25 33 8 57-30 24-41C81-84 22-81 20-136c-2-80 154-74 161-7" id="z"/><g id="b"><use transform="matrix(0.14814814814814817,0,0,0.14814814814814817,0,0)" xlink:href="#p"/><use transform="matrix(0.14814814814814817,0,0,0.14814814814814817,35.55555555555556,0)" xlink:href="#w"/><use transform="matrix(0.14814814814814817,0,0,0.14814814814814817,56.296296296296305,0)" xlink:href="#x"/><use transform="matrix(0.14814814814814817,0,0,0.14814814814814817,88.74074074074078,0)" xlink:href="#y"/><use transform="matrix(0.14814814814814817,0,0,0.14814814814814817,118.37037037037041,0)" xlink:href="#t"/><use transform="matrix(0.14814814814814817,0,0,0.14814814814814817,148.00000000000003,0)" xlink:href="#z"/><use transform="matrix(0.14814814814814817,0,0,0.14814814814814817,177.62962962962968,0)" xlink:href="#z"/><use transform="matrix(0.14814814814814817,0,0,0.14814814814814817,207.2592592592593,0)" xlink:href="#x"/><use transform="matrix(0.14814814814814817,0,0,0.14814814814814817,239.70370370370372,0)" xlink:href="#w"/></g><path d="M199 0l-22-63H83L61 0H9l90-248h61L250 0h-51zm-33-102l-36-108c-10 38-24 72-36 108h72" id="A"/><path d="M67-125c0 53 21 87 73 88 37 1 54-22 65-47l45 17C233-25 199 4 140 4 58 4 20-42 15-125 8-235 124-281 211-232c18 10 29 29 36 50l-46 12c-8-25-30-41-62-41-52 0-71 34-72 86" id="B"/><path d="M186 0v-106H76V0H24v-248h52v99h110v-99h50V0h-50" id="C"/><g id="c"><use transform="matrix(0.14814814814814817,0,0,0.14814814814814817,0,0)" xlink:href="#A"/><use transform="matrix(0.14814814814814817,0,0,0.14814814814814817,38.370370370370374,0)" xlink:href="#B"/><use transform="matrix(0.14814814814814817,0,0,0.14814814814814817,76.74074074074075,0)" xlink:href="#C"/></g><path d="M140-251c80 0 125 45 125 126S219 4 139 4C58 4 15-44 15-125s44-126 125-126zm-1 214c52 0 73-35 73-88 0-50-21-86-72-86-52 0-73 35-73 86s22 88 72 88" id="D"/><path d="M135-194c53 0 70 44 70 98 0 56-19 98-73 100-31 1-45-17-59-34 3 33 2 69 2 105H25l-1-265h48c2 10 0 23 3 31 11-24 29-35 60-35zM114-30c33 0 39-31 40-66 0-38-9-64-40-64-56 0-55 130 0 130" id="E"/><g id="d"><use transform="matrix(0.14814814814814817,0,0,0.14814814814814817,0,0)" xlink:href="#D"/><use transform="matrix(0.14814814814814817,0,0,0.14814814814814817,41.48148148148149,0)" xlink:href="#E"/><use transform="matrix(0.14814814814814817,0,0,0.14814814814814817,73.92592592592594,0)" xlink:href="#t"/><use transform="matrix(0.14814814814814817,0,0,0.14814814814814817,103.55555555555557,0)" xlink:href="#w"/><use transform="matrix(0.14814814814814817,0,0,0.14814814814814817,124.29629629629632,0)" xlink:href="#q"/><use transform="matrix(0.14814814814814817,0,0,0.14814814814814817,153.92592592592595,0)" xlink:href="#v"/><use transform="matrix(0.14814814814814817,0,0,0.14814814814814817,171.5555555555556,0)" xlink:href="#x"/><use transform="matrix(0.14814814814814817,0,0,0.14814814814814817,204.00000000000006,0)" xlink:href="#w"/></g><path d="M76-208v77h127v40H76V0H24v-248h183v40H76" id="F"/><path d="M88-194c31-1 46 15 58 34l-1-101h50l1 261h-48c-2-10 0-23-3-31C134-8 116 4 84 4 32 4 16-41 15-95c0-56 19-97 73-99zm17 164c33 0 40-30 41-66 1-37-9-64-41-64s-38 30-39 65c0 43 13 65 39 65" id="G"/><path d="M25 0v-261h50V0H25" id="H"/><g id="e"><use transform="matrix(0.14814814814814817,0,0,0.14814814814814817,0,0)" xlink:href="#F"/><use transform="matrix(0.14814814814814817,0,0,0.14814814814814817,32.44444444444445,0)" xlink:href="#t"/><use transform="matrix(0.14814814814814817,0,0,0.14814814814814817,62.07407407407408,0)" xlink:href="#G"/><use transform="matrix(0.14814814814814817,0,0,0.14814814814814817,94.51851851851853,0)" xlink:href="#t"/><use transform="matrix(0.14814814814814817,0,0,0.14814814814814817,124.14814814814817,0)" xlink:href="#w"/><use transform="matrix(0.14814814814814817,0,0,0.14814814814814817,144.8888888888889,0)" xlink:href="#q"/><use transform="matrix(0.14814814814814817,0,0,0.14814814814814817,174.51851851851853,0)" xlink:href="#H"/></g><path d="M240-174c0 40-23 61-54 70L253 0h-59l-57-94H76V0H24v-248c93 4 217-23 216 74zM76-134c48-2 112 12 112-38 0-48-66-32-112-35v73" id="I"/><path d="M128 0H69L1-190h53L99-40l48-150h52" id="J"/><g id="f"><use transform="matrix(0.14814814814814817,0,0,0.14814814814814817,0,0)" xlink:href="#I"/><use transform="matrix(0.14814814814814817,0,0,0.14814814814814817,38.370370370370374,0)" xlink:href="#t"/><use transform="matrix(0.14814814814814817,0,0,0.14814814814814817,68,0)" xlink:href="#z"/><use transform="matrix(0.14814814814814817,0,0,0.14814814814814817,97.62962962962962,0)" xlink:href="#t"/><use transform="matrix(0.14814814814814817,0,0,0.14814814814814817,127.25925925925925,0)" xlink:href="#w"/><use transform="matrix(0.14814814814814817,0,0,0.14814814814814817,148,0)" xlink:href="#J"/><use transform="matrix(0.14814814814814817,0,0,0.14814814814814817,177.62962962962962,0)" xlink:href="#t"/></g><path d="M24-248c120-7 223 5 221 122C244-46 201 0 124 0H24v-248zM76-40c74 7 117-18 117-86 0-67-45-88-117-82v168" id="K"/><path d="M24 0v-248h52V0H24" id="L"/><g id="g"><use transform="matrix(0.14814814814814817,0,0,0.14814814814814817,0,0)" xlink:href="#D"/><use transform="matrix(0.14814814814814817,0,0,0.14814814814814817,41.48148148148149,0)" xlink:href="#K"/><use transform="matrix(0.14814814814814817,0,0,0.14814814814814817,79.85185185185186,0)" xlink:href="#F"/><use transform="matrix(0.14814814814814817,0,0,0.14814814814814817,112.2962962962963,0)" xlink:href="#L"/></g><path d="M135-194c52 0 70 43 70 98 0 56-19 99-73 100-30 1-46-15-58-35L72 0H24l1-261h50v104c11-23 29-37 60-37zM114-30c31 0 40-27 40-66 0-37-7-63-39-63s-41 28-41 65c0 36 8 64 40 64" id="M"/><path d="M147 0L96-86 75-71V0H25v-261h50v150l67-79h53l-66 74L201 0h-54" id="N"/><g id="h"><use transform="matrix(0.14814814814814817,0,0,0.14814814814814817,0,0)" xlink:href="#M"/><use transform="matrix(0.14814814814814817,0,0,0.14814814814814817,32.44444444444445,0)" xlink:href="#q"/><use transform="matrix(0.14814814814814817,0,0,0.14814814814814817,62.07407407407408,0)" xlink:href="#u"/><use transform="matrix(0.14814814814814817,0,0,0.14814814814814817,94.51851851851853,0)" xlink:href="#N"/><use transform="matrix(0.14814814814814817,0,0,0.14814814814814817,124.14814814814817,0)" xlink:href="#z"/></g><g id="i"><use transform="matrix(0.14814814814814817,0,0,0.14814814814814817,0,0)" xlink:href="#I"/><use transform="matrix(0.14814814814814817,0,0,0.14814814814814817,38.370370370370374,0)" xlink:href="#K"/><use transform="matrix(0.14814814814814817,0,0,0.14814814814814817,76.74074074074075,0)" xlink:href="#F"/><use transform="matrix(0.14814814814814817,0,0,0.14814814814814817,109.18518518518518,0)" xlink:href="#L"/></g><path d="M175 0L67-191c6 58 2 128 3 191H24v-248h59L193-55c-6-58-2-129-3-193h46V0h-61" id="O"/><path d="M85 4C-2 5 27-109 22-190h50c7 57-23 150 33 157 60-5 35-97 40-157h50l1 190h-47c-2-12 1-28-3-38-12 25-28 42-61 42" id="P"/><g id="j"><use transform="matrix(0.14814814814814817,0,0,0.14814814814814817,0,0)" xlink:href="#O"/><use transform="matrix(0.14814814814814817,0,0,0.14814814814814817,38.370370370370374,0)" xlink:href="#P"/><use transform="matrix(0.14814814814814817,0,0,0.14814814814814817,70.81481481481482,0)" xlink:href="#s"/><use transform="matrix(0.14814814814814817,0,0,0.14814814814814817,118.22222222222221,0)" xlink:href="#M"/><use transform="matrix(0.14814814814814817,0,0,0.14814814814814817,150.66666666666669,0)" xlink:href="#t"/><use transform="matrix(0.14814814814814817,0,0,0.14814814814814817,180.29629629629633,0)" xlink:href="#w"/></g><path d="M121-226c-27-7-43 5-38 36h38v33H83V0H34v-157H6v-33h28c-9-59 32-81 87-68v32" id="Q"/><g id="k"><use transform="matrix(0.14814814814814817,0,0,0.14814814814814817,0,0)" xlink:href="#x"/><use transform="matrix(0.14814814814814817,0,0,0.14814814814814817,32.44444444444445,0)" xlink:href="#Q"/></g><path d="M195-6C206 82 75 100 31 46c-4-6-6-13-8-21l49-6c3 16 16 24 34 25 40 0 42-37 40-79-11 22-30 35-61 35-53 0-70-43-70-97 0-56 18-96 73-97 30 0 46 14 59 34l2-30h47zm-90-29c32 0 41-27 41-63 0-35-9-62-40-62-32 0-39 29-40 63 0 36 9 62 39 62" id="R"/><g id="l"><use transform="matrix(0.14814814814814817,0,0,0.14814814814814817,0,0)" xlink:href="#R"/><use transform="matrix(0.14814814814814817,0,0,0.14814814814814817,32.44444444444445,0)" xlink:href="#t"/><use transform="matrix(0.14814814814814817,0,0,0.14814814814814817,62.07407407407408,0)" xlink:href="#u"/><use transform="matrix(0.14814814814814817,0,0,0.14814814814814817,94.51851851851853,0)" xlink:href="#t"/><use transform="matrix(0.14814814814814817,0,0,0.14814814814814817,124.14814814814817,0)" xlink:href="#w"/><use transform="matrix(0.14814814814814817,0,0,0.14814814814814817,144.8888888888889,0)" xlink:href="#q"/><use transform="matrix(0.14814814814814817,0,0,0.14814814814814817,174.51851851851853,0)" xlink:href="#v"/><use transform="matrix(0.14814814814814817,0,0,0.14814814814814817,192.14814814814815,0)" xlink:href="#t"/><use transform="matrix(0.14814814814814817,0,0,0.14814814814814817,221.77777777777777,0)" xlink:href="#G"/></g><path d="M25-224v-37h50v37H25zM25 0v-190h50V0H25" id="S"/><g id="m"><use transform="matrix(0.14814814814814817,0,0,0.14814814814814817,0,0)" xlink:href="#Q"/><use transform="matrix(0.14814814814814817,0,0,0.14814814814814817,17.629629629629633,0)" xlink:href="#S"/><use transform="matrix(0.14814814814814817,0,0,0.14814814814814817,32.44444444444445,0)" xlink:href="#H"/><use transform="matrix(0.14814814814814817,0,0,0.14814814814814817,47.25925925925927,0)" xlink:href="#t"/><use transform="matrix(0.14814814814814817,0,0,0.14814814814814817,76.8888888888889,0)" xlink:href="#z"/></g><path d="M114-157C55-157 80-60 75 0H25v-261h50l-1 109c12-26 28-41 61-42 86-1 58 113 63 194h-50c-7-57 23-157-34-157" id="T"/><g id="n"><use transform="matrix(0.14814814814814817,0,0,0.14814814814814817,0,0)" xlink:href="#G"/><use transform="matrix(0.14814814814814817,0,0,0.14814814814814817,32.44444444444445,0)" xlink:href="#S"/><use transform="matrix(0.14814814814814817,0,0,0.14814814814814817,47.25925925925927,0)" xlink:href="#z"/><use transform="matrix(0.14814814814814817,0,0,0.14814814814814817,76.8888888888889,0)" xlink:href="#E"/><use transform="matrix(0.14814814814814817,0,0,0.14814814814814817,109.33333333333334,0)" xlink:href="#q"/><use transform="matrix(0.14814814814814817,0,0,0.14814814814814817,138.962962962963,0)" xlink:href="#v"/><use transform="matrix(0.14814814814814817,0,0,0.14814814814814817,156.5925925925926,0)" xlink:href="#y"/><use transform="matrix(0.14814814814814817,0,0,0.14814814814814817,186.2222222222222,0)" xlink:href="#T"/><use transform="matrix(0.14814814814814817,0,0,0.14814814814814817,218.66666666666669,0)" xlink:href="#t"/><use transform="matrix(0.14814814814814817,0,0,0.14814814814814817,248.2962962962963,0)" xlink:href="#G"/></g><g id="o"><use transform="matrix(0.14814814814814817,0,0,0.14814814814814817,0,0)" xlink:href="#E"/><use transform="matrix(0.14814814814814817,0,0,0.14814814814814817,32.44444444444445,0)" xlink:href="#w"/><use transform="matrix(0.14814814814814817,0,0,0.14814814814814817,53.18518518518519,0)" xlink:href="#x"/><use transform="matrix(0.14814814814814817,0,0,0.14814814814814817,85.62962962962965,0)" xlink:href="#y"/><use transform="matrix(0.14814814814814817,0,0,0.14814814814814817,115.25925925925928,0)" xlink:href="#t"/><use transform="matrix(0.14814814814814817,0,0,0.14814814814814817,144.8888888888889,0)" xlink:href="#z"/><use transform="matrix(0.14814814814814817,0,0,0.14814814814814817,174.51851851851853,0)" xlink:href="#z"/><use transform="matrix(0.14814814814814817,0,0,0.14814814814814817,204.14814814814815,0)" xlink:href="#t"/><use transform="matrix(0.14814814814814817,0,0,0.14814814814814817,233.77777777777777,0)" xlink:href="#G"/></g></defs></g></svg>